<?xml version="1.0" encoding="utf-8"?>
<!-- Generator: Adobe Illustrator 19.2.1, SVG Export Plug-In . SVG Version: 6.00 Build 0)  -->
<svg version="1.1" id="Layer_2" xmlns="http://www.w3.org/2000/svg" xmlns:xlink="http://www.w3.org/1999/xlink" x="0px" y="0px"
	 viewBox="0 0 164.1 77.6" style="enable-background:new 0 0 164.1 77.6;" xml:space="preserve">
<style type="text/css">
	.st0{fill:#11AC96;}
	.st1{opacity:0.18;}
	.st2{fill:url(#SVGID_1_);}
	.st3{fill:url(#SVGID_2_);}
	.st4{fill:url(#SVGID_3_);}
	.st5{fill:url(#SVGID_4_);}
	.st6{fill-rule:evenodd;clip-rule:evenodd;fill:#11AC96;}
</style>
<g>
	<path class="st0" d="M115.3,23.4c-0.3-0.3-0.6-0.4-1.1-0.4c-0.5,0-0.8,0.2-1.1,0.5c-0.3,0.3-0.4,0.6-0.5,1.3h3
		C115.7,24.1,115.6,23.7,115.3,23.4z"/>
	<path class="st0" d="M127.6,40.7c-0.3,0.2-0.5,0.5-0.5,0.9c0,0.3,0.1,0.5,0.3,0.7c0.2,0.2,0.4,0.2,0.8,0.2c0.5,0,0.9-0.1,1.2-0.4
		c0.3-0.3,0.5-0.7,0.5-1.2v-0.6l-0.8,0C128.4,40.4,127.9,40.5,127.6,40.7z"/>
	<path class="st0" d="M137.2,55.6c-0.3,0.2-0.5,0.5-0.5,0.9c0,0.3,0.1,0.5,0.3,0.7c0.2,0.2,0.4,0.2,0.8,0.2c0.5,0,0.9-0.1,1.2-0.4
		c0.3-0.3,0.4-0.7,0.4-1.2v-0.6l-0.8,0C138,55.2,137.6,55.4,137.2,55.6z"/>
	<path class="st0" d="M111.8,42.5c1.1,0,1.7-0.8,1.7-2.3c0-1.5-0.6-2.3-1.7-2.3c-0.6,0-1,0.2-1.3,0.6c-0.3,0.4-0.4,1-0.4,1.7
		C110.1,41.7,110.7,42.5,111.8,42.5z"/>
	<path class="st0" d="M91.1,52.7c-0.6,0-1,0.2-1.3,0.6c-0.3,0.4-0.4,1-0.4,1.7c0,1.5,0.6,2.3,1.7,2.3c1.1,0,1.7-0.8,1.7-2.3
		C92.8,53.5,92.2,52.7,91.1,52.7z"/>
	<path class="st0" d="M146.1,40.2c0-1.5-0.6-2.3-1.7-2.3c-0.6,0-1,0.2-1.3,0.6c-0.3,0.4-0.4,1-0.4,1.7c0,1.5,0.6,2.3,1.7,2.3
		C145.5,42.5,146.1,41.7,146.1,40.2z"/>
	<path class="st0" d="M92.1,36.7c-0.1-0.3-0.2-0.6-0.2-0.8c-0.1,0.5-0.3,1.1-0.5,1.7l-0.8,2.3h2.6l-0.8-2.4
		C92.3,37.3,92.2,37,92.1,36.7z"/>
	<path class="st0" d="M106.9,51.5c-0.1-0.3-0.2-0.6-0.2-0.8c-0.1,0.5-0.3,1.1-0.5,1.7l-0.8,2.4h2.6l-0.8-2.5
		C107.1,52.2,107,51.9,106.9,51.5z"/>
	<path class="st0" d="M102,20.9h-1.2v6.7h1c2.1,0,3.2-1.2,3.2-3.4C104.9,22.1,103.9,20.9,102,20.9z"/>
	<path class="st0" d="M151.3,55.6c-0.3,0.2-0.5,0.5-0.5,0.9c0,0.3,0.1,0.5,0.3,0.7c0.2,0.2,0.4,0.2,0.8,0.2c0.5,0,1-0.1,1.3-0.4
		c0.3-0.3,0.5-0.7,0.5-1.2v-0.6l-0.9,0C152.1,55.2,151.6,55.4,151.3,55.6z"/>
	<path class="st0" d="M137.4,27.7c0.5,0,0.9-0.1,1.2-0.4c0.3-0.3,0.5-0.7,0.5-1.2v-0.6l-0.8,0c-0.7,0-1.1,0.1-1.4,0.3
		c-0.3,0.2-0.5,0.5-0.5,0.9c0,0.3,0.1,0.5,0.3,0.7C136.8,27.6,137.1,27.7,137.4,27.7z"/>
	<path class="st0" d="M160.3,0H3.8C1.7,0,0,1.7,0,3.8v70c0,2.1,1.7,3.8,3.8,3.8h156.5c2.1,0,3.8-1.7,3.8-3.8v-70
		C164.1,1.7,162.4,0,160.3,0z M150.6,22.4c0.5-0.3,1.1-0.5,1.9-0.5c0.8,0,1.5,0.2,2.2,0.5l-0.5,1.1c-0.7-0.3-1.3-0.4-1.8-0.4
		c-0.7,0-1.1,0.2-1.1,0.6c0,0.2,0.1,0.4,0.3,0.5c0.2,0.1,0.6,0.3,1.3,0.6c0.6,0.2,1,0.4,1.2,0.6s0.4,0.4,0.6,0.6
		c0.1,0.2,0.2,0.5,0.2,0.8c0,0.7-0.2,1.2-0.7,1.5c-0.5,0.3-1.2,0.5-2.1,0.5c-0.9,0-1.6-0.1-2.2-0.4v-1.2c1,0.4,1.6,0.5,2.2,0.5
		c0.9,0,1.3-0.3,1.3-0.8c0-0.2,0-0.3-0.1-0.4c-0.1-0.1-0.2-0.2-0.5-0.3c-0.2-0.1-0.5-0.3-0.9-0.4c-0.8-0.3-1.3-0.6-1.6-0.9
		c-0.3-0.3-0.4-0.7-0.4-1.2C149.9,23.1,150.2,22.7,150.6,22.4z M135.7,25.2c0.5-0.4,1.3-0.5,2.3-0.6l1.1,0v-0.4c0-0.4-0.1-0.7-0.3-1
		c-0.2-0.2-0.5-0.3-0.9-0.3c-0.3,0-0.7,0.1-1,0.2c-0.3,0.1-0.6,0.2-0.9,0.4l-0.5-1c0.4-0.2,0.8-0.3,1.2-0.4c0.4-0.1,0.8-0.1,1.2-0.1
		c0.8,0,1.6,0.2,2,0.6c0.4,0.4,0.7,1,0.7,1.7v4.6h-1.1l-0.3-1h0c-0.3,0.3-0.6,0.6-1,0.8c-0.3,0.1-0.7,0.2-1.3,0.2
		c-0.7,0-1.2-0.2-1.5-0.5c-0.4-0.4-0.6-0.9-0.6-1.5C134.9,26.1,135.1,25.6,135.7,25.2z M139.5,35.7c-0.1,0.1-0.3,0.2-0.6,0.2
		c-0.3,0-0.5-0.1-0.6-0.2c-0.1-0.1-0.2-0.3-0.2-0.6c0-0.3,0.1-0.4,0.2-0.6c0.1-0.1,0.3-0.2,0.6-0.2c0.2,0,0.4,0.1,0.6,0.2
		c0.1,0.1,0.2,0.3,0.2,0.6C139.7,35.3,139.6,35.5,139.5,35.7z M139.7,36.8v6.7h-1.6v-6.7H139.7z M134,35.5h1v1.3h1.9V38H135v3.5
		c0,0.3,0,0.6,0.2,0.8c0.2,0.2,0.4,0.2,0.7,0.2c0.3,0,0.7-0.1,1-0.2v1.1c-0.3,0.1-0.4,0.1-0.6,0.2c-0.2,0-0.5,0.1-0.8,0.1
		c-1.3,0-2.1-0.7-2.1-2.1V38h-1v-0.7l1-0.5L134,35.5z M131.8,28.8v-7h1.6v7H131.8z M132,19.7c0.1-0.1,0.3-0.2,0.6-0.2
		c0.2,0,0.4,0.1,0.6,0.2c0.1,0.1,0.2,0.3,0.2,0.6c0,0.2-0.1,0.4-0.2,0.6c-0.1,0.1-0.3,0.2-0.6,0.2c-0.3,0-0.5-0.1-0.6-0.2
		c-0.1-0.1-0.2-0.3-0.2-0.6C131.8,20,131.9,19.8,132,19.7z M126.4,22.5l0.9-0.5l0.4-1.4h0.9v1.3h1.9v1.3h-1.9v3.5
		c0,0.3,0.1,0.6,0.2,0.8c0.2,0.2,0.4,0.2,0.6,0.2c0.3,0,0.7-0.1,1-0.2v1.1c0,0.1-0.3,0.1-0.6,0.2c-0.2,0-0.6,0.1-0.8,0.1
		c-1.3,0-2.1-0.7-2.1-2.1v-3.5h-0.6V22.5z M123.7,19.7c0.1-0.1,0.3-0.2,0.6-0.2c0.2,0,0.4,0.1,0.6,0.2c0.1,0.1,0.2,0.3,0.2,0.6
		c0,0.2-0.1,0.4-0.2,0.6c-0.1,0.1-0.3,0.2-0.6,0.2c-0.3,0-0.5-0.1-0.6-0.2c-0.1-0.1-0.2-0.3-0.2-0.6C123.5,20,123.6,19.8,123.7,19.7
		z M125.2,21.9v7h-1.6v-7H125.2z M117.9,22.5l1-0.5l0.5-1.4h1v1.3h1.9v1.3h-1.9v3.5c0,0.3,0,0.6,0.2,0.8c0.2,0.2,0.4,0.2,0.7,0.2
		c0.3,0,0.7-0.1,1-0.2v1.1c-0.3,0.1-0.4,0.1-0.6,0.2c-0.2,0-0.5,0.1-0.8,0.1c-1.3,0-2.1-0.7-2.1-2.1v-3.5h-1V22.5z M118.1,41.9
		c0.3,0.4,0.7,0.6,1.2,0.6c0.6,0,1.4-0.2,1.7-0.5v1.2c0,0.1-0.5,0.3-0.8,0.3c-0.3,0.1-0.6,0.1-1,0.1c-1,0-1.8-0.3-2.3-0.9
		c-0.5-0.6-0.8-1.4-0.8-2.5c0-1.1,0.3-2,0.8-2.6c0.5-0.6,1.3-0.9,2.4-0.9c0.7,0,1.3,0.1,1.9,0.4l-0.4,1.1c-0.6-0.2-1.1-0.3-1.5-0.3
		c-1.2,0-1.7,0.8-1.7,2.3C117.7,41,117.8,41.5,118.1,41.9z M112,22.8c0.5-0.6,1.3-0.9,2.2-0.9c0.9,0,1.6,0.3,2.1,0.8
		c0.5,0.5,0.8,1.3,0.8,2.2v0.8h-4.5c0,0.6,0.2,1.1,0.5,1.5c0.3,0.3,0.8,0.5,1.4,0.5c0.4,0,0.8,0,1.2-0.1c0.3-0.1,0.5-0.2,1.1-0.4
		v1.2c-0.3,0.2-0.8,0.3-1.1,0.3c-0.4,0.1-0.8,0.1-1.2,0.1c-1,0-1.9-0.3-2.4-0.9c-0.6-0.6-0.9-1.4-0.9-2.5
		C111.2,24.3,111.5,23.4,112,22.8z M109.5,37.7c0.6-0.6,1.3-0.9,2.3-0.9c1,0,1.7,0.3,2.3,0.9c0.6,0.6,0.8,1.5,0.8,2.5
		c0,1.1-0.3,1.9-0.8,2.6c-0.6,0.6-1.3,0.9-2.3,0.9c-0.6,0-1.2-0.1-1.7-0.4c-0.5-0.3-0.8-0.7-1.1-1.2c-0.3-0.5-0.4-1.1-0.4-1.8
		C108.6,39.1,108.9,38.3,109.5,37.7z M108,28.8v-7h1.6v7H108z M108.3,19.7c0.1-0.1,0.3-0.2,0.6-0.2c0.2,0,0.4,0.1,0.6,0.2
		c0.1,0.1,0.2,0.3,0.2,0.6c0,0.2-0.1,0.4-0.2,0.6c-0.1,0.1-0.3,0.2-0.6,0.2c-0.3,0-0.5-0.1-0.6-0.2c-0.1-0.1-0.2-0.3-0.2-0.6
		C108.1,20,108.2,19.8,108.3,19.7z M104.3,39c0.2,0.1,0.6,0.3,1.3,0.6c0.6,0.2,1,0.4,1.2,0.6s0.4,0.4,0.6,0.6
		c0.1,0.2,0.2,0.5,0.2,0.8c0,0.7-0.2,1.2-0.7,1.5c-0.5,0.3-1.1,0.5-2,0.5c-0.9,0-1.5-0.1-2.1-0.4V42c0.6,0.4,1.5,0.5,2.2,0.5
		c0.9,0,1.3-0.3,1.3-0.8c0-0.2-0.1-0.3-0.1-0.4c-0.1-0.1-0.3-0.2-0.5-0.3c-0.2-0.1-0.5-0.3-0.9-0.4c-0.8-0.3-1.3-0.6-1.6-0.9
		c-0.3-0.3-0.4-0.7-0.4-1.2c0-0.6,0.2-1,0.7-1.3c0.5-0.3,1.1-0.5,1.9-0.5c0.8,0,1.5,0.2,2.2,0.5l-0.5,1.1c-0.7-0.3-1.3-0.4-1.8-0.4
		c-0.7,0-1.1,0.2-1.1,0.6C104,38.7,104.1,38.9,104.3,39z M39.4,70C22.2,70,8.3,56,8.3,38.9S22.2,7.8,39.4,7.8s31.1,13.9,31.1,31.1
		S56.6,70,39.4,70z M93.4,57.6c-0.6,0.6-1.3,0.9-2.3,0.9c-0.6,0-1.2-0.1-1.7-0.4c-0.5-0.3-0.8-0.7-1.1-1.2s-0.4-1.1-0.4-1.8
		c0-1.1,0.3-1.9,0.8-2.5c0.6-0.6,1.3-0.9,2.3-0.9c1,0,1.7,0.3,2.3,0.9c0.6,0.6,0.8,1.5,0.8,2.5C94.3,56.1,94,57,93.4,57.6z
		 M93.6,41.2h-3.4l-0.9,2.2h-1.5l3.3-8.9h1.6l3.3,8.9h-1.5L93.6,41.2z M99.5,50.2c-0.3-0.1-0.7-0.2-1-0.2c-0.3,0-0.6,0.1-0.7,0.3
		c-0.1,0.2-0.2,0.5-0.2,0.9v0.4h1.6v1.3h-1.6v5.4h-1.3v-5.4h-1.3v-0.8l1.3-0.4v-0.4c0-0.8,0.1-1.4,0.5-1.8c0.4-0.4,0.9-0.6,1.7-0.6
		c0.5,0,1,0.1,1.5,0.2L99.5,50.2z M100.8,43.1c-0.5,0.3-1.1,0.5-2,0.5c-0.9,0-1.5-0.1-2.1-0.4V42c0.6,0.4,1.5,0.5,2.2,0.5
		c0.9,0,1.3-0.3,1.3-0.8c0-0.2-0.1-0.3-0.1-0.4c-0.1-0.1-0.3-0.2-0.5-0.3c-0.2-0.1-0.5-0.3-0.9-0.4c-0.8-0.3-1.3-0.6-1.6-0.9
		c-0.3-0.3-0.4-0.7-0.4-1.2c0-0.6,0.2-1,0.7-1.3c0.5-0.3,1.1-0.5,1.9-0.5c0.8,0,1.5,0.2,2.2,0.5l-0.5,1.1c-0.7-0.3-1.3-0.4-1.8-0.4
		c-0.7,0-1.1,0.2-1.1,0.6c0,0.2,0.1,0.4,0.3,0.5c0.2,0.1,0.6,0.3,1.3,0.6c0.6,0.2,1,0.4,1.2,0.6s0.4,0.4,0.6,0.6
		c0.1,0.2,0.2,0.5,0.2,0.8C101.5,42.3,101.3,42.8,100.8,43.1z M99.2,28.8V20h2.8c1.4,0,2.5,0.3,3.3,1.1c0.8,0.8,1.2,1.8,1.2,3.2
		c0,1.5-0.4,2.6-1.2,3.4c-0.8,0.8-2,1.2-3.5,1.2H99.2z M109.2,58.3l-0.9-2.5h-3.4l-0.9,2.5h-1.5l3.3-8.9h1.6l3.3,8.9H109.2z
		 M117.5,58.3h-1.1l-0.2-1h-0.1c-0.2,0.3-0.5,0.6-0.8,0.8c-0.4,0.2-0.8,0.3-1.2,0.3c-0.8,0-1.5-0.2-1.9-0.6c-0.4-0.4-0.7-1-0.7-1.8
		v-4.4h1.6v4.2c0,0.5,0.1,0.9,0.3,1.1c0.2,0.3,0.5,0.4,1,0.4c0.6,0,1.1-0.2,1.4-0.5c0.3-0.4,0.5-1,0.5-1.8v-3.4h1.3V58.3z M123.4,58
		c-0.5,0.3-1.2,0.5-2.1,0.5c-0.9,0-1.5-0.1-2.2-0.4v-1.2c1,0.4,1.5,0.5,2.2,0.5c0.9,0,1.3-0.3,1.3-0.8c0-0.2,0-0.3-0.1-0.4
		c-0.1-0.1-0.3-0.2-0.5-0.3c-0.2-0.1-0.5-0.3-0.9-0.4c-0.8-0.3-1.3-0.6-1.6-0.9c-0.3-0.3-0.4-0.7-0.4-1.2c0-0.6,0.2-1,0.7-1.3
		c0.5-0.3,1.1-0.5,1.9-0.5c0.8,0,1.5,0.2,2.2,0.5l-0.5,1.1c-0.7-0.3-1.3-0.4-1.8-0.4c-0.7,0-1.1,0.2-1.1,0.6c0,0.2,0.1,0.4,0.3,0.5
		c0.2,0.1,0.6,0.3,1.3,0.6c0.6,0.2,1,0.4,1.2,0.6s0.4,0.4,0.6,0.6c0.1,0.2,0.2,0.5,0.2,0.8C124.1,57.1,123.8,57.6,123.4,58z
		 M124.2,43.4h-1.6v-6.7h1.6V43.4z M124,35.7c-0.1,0.1-0.3,0.2-0.6,0.2c-0.3,0-0.5-0.1-0.6-0.2c-0.1-0.1-0.2-0.3-0.2-0.6
		c0-0.3,0.1-0.4,0.2-0.6c0.1-0.1,0.3-0.2,0.6-0.2c0.2,0,0.4,0.1,0.6,0.2c0.1,0.1,0.2,0.3,0.2,0.6C124.2,35.3,124.1,35.5,124,35.7z
		 M129.3,58.2c-0.3,0.1-0.4,0.1-0.7,0.2c-0.2,0-0.5,0.1-0.8,0.1c-1.3,0-2-0.7-2-2.1v-3.5h-1v-0.8l1-0.6l0.5-1.5h0.8v1.6h1.9v1.3
		h-1.9v3.4c0,0.3,0.1,0.6,0.3,0.8c0.2,0.2,0.5,0.2,0.8,0.2c0.3,0,0.5-0.1,1.1-0.2V58.2z M130,42.5L130,42.5c-0.4,0.6-0.7,0.8-1,0.9
		c-0.3,0.1-0.7,0.3-1.3,0.3c-0.7,0-1.2-0.2-1.5-0.5c-0.4-0.4-0.6-0.8-0.6-1.5c0-0.7,0.3-1.2,0.8-1.6c0.5-0.4,1.3-0.5,2.3-0.6l1.1,0
		v-0.4c0-0.4-0.1-0.7-0.3-1c-0.2-0.2-0.5-0.3-0.9-0.3c-0.3,0-0.7,0.1-1,0.2c-0.3,0.1-0.6,0.2-0.9,0.4l-0.5-1
		c0.4-0.2,0.8-0.3,1.2-0.4c0.4-0.1,0.8-0.1,1.2-0.1c0.8,0,1.6,0.2,2,0.6c0.4,0.4,0.7,1,0.7,1.7v4.4h-1.2L130,42.5z M134.4,53
		c-0.2,0-0.4-0.1-0.6-0.1c-0.6,0-1.1,0.2-1.4,0.6c-0.4,0.4-0.6,0.9-0.6,1.4v3.4h-1.3v-6.7h1l0.2,1.3h0.1c0.2-0.3,0.5-0.7,0.9-1
		c0.4-0.2,0.7-0.4,1.1-0.4c0.3,0,0.5,0,0.7,0.1L134.4,53z M141,58.3h-1l-0.3-1h0c-0.3,0.6-0.6,0.7-1,0.9c-0.3,0.1-0.7,0.2-1.3,0.2
		c-0.7,0-1.2-0.2-1.5-0.5c-0.4-0.4-0.6-0.8-0.6-1.5c0-0.7,0.3-1.2,0.8-1.6c0.5-0.4,1.4-0.5,2.4-0.6l1.2,0v-0.4c0-0.4-0.2-0.7-0.4-1
		c-0.2-0.2-0.5-0.3-1-0.3c-0.3,0-0.7,0.1-1,0.2c-0.3,0.1-0.6,0.2-0.9,0.4l-0.5-1c0.4-0.2,0.8-0.3,1.2-0.4c0.4-0.1,0.8-0.1,1.2-0.1
		c0.8,0,1.5,0.2,1.9,0.6c0.4,0.4,0.7,1,0.7,1.7V58.3z M141.6,42c-0.3-0.5-0.4-1.1-0.4-1.8c0-1.1,0.3-1.9,0.8-2.5
		c0.6-0.6,1.3-0.9,2.3-0.9c1,0,1.7,0.3,2.3,0.9c0.6,0.6,0.8,1.5,0.8,2.5c0,1.1-0.3,1.9-0.8,2.6c-0.6,0.6-1.3,0.9-2.3,0.9
		c-0.6,0-1.2-0.1-1.7-0.4C142.2,43,141.9,42.6,141.6,42z M144.5,58.3h-1.6v-9.2h1.6V58.3z M148,58.3h-1.6v-6.7h1.6V58.3z
		 M147.7,50.5c-0.1,0.1-0.3,0.2-0.6,0.2c-0.3,0-0.5-0.1-0.6-0.2c-0.1-0.1-0.2-0.3-0.2-0.6c0-0.3,0.1-0.4,0.2-0.6
		c0.1-0.1,0.3-0.2,0.6-0.2c0.2,0,0.4,0.1,0.6,0.2c0.1,0.1,0.2,0.3,0.2,0.6C147.9,50.2,147.8,50.4,147.7,50.5z M148.3,28.8H147v-4.3
		c0-0.5-0.1-0.9-0.3-1.2c-0.2-0.3-0.5-0.4-1-0.4c-0.6,0-1.1,0.2-1.4,0.5c-0.3,0.4-0.5,0.9-0.5,1.8v3.5h-1.3v-7h1.1l0.2,1h0.1
		c0.2-0.3,0.5-0.5,0.9-0.7c0.4-0.2,0.7-0.2,1.2-0.2c1.6,0,2.3,0.8,2.3,2.5V28.8z M154.9,58.3H154l-0.3-1h0c-0.3,0.6-0.6,0.7-1,0.9
		c-0.3,0.1-0.7,0.2-1.3,0.2c-0.7,0-1.2-0.2-1.5-0.5c-0.4-0.4-0.6-0.8-0.6-1.5c0-0.7,0.3-1.2,0.8-1.6c0.5-0.4,1.3-0.5,2.4-0.6l1.2,0
		v-0.4c0-0.4-0.1-0.7-0.3-1c-0.2-0.2-0.5-0.3-0.9-0.3c-0.3,0-0.7,0.1-1,0.2c-0.3,0.1-0.6,0.2-0.9,0.4l-0.5-1
		c0.4-0.2,0.8-0.3,1.2-0.4c0.4-0.1,0.8-0.1,1.2-0.1c0.8,0,1.4,0.2,1.9,0.6c0.4,0.4,0.6,1,0.6,1.7V58.3z M154.9,43.4h-1.3v-4
		c0-0.5-0.1-0.9-0.3-1.2c-0.2-0.3-0.5-0.4-1-0.4c-0.6,0-1.1,0.2-1.4,0.5c-0.3,0.4-0.5,0.9-0.5,1.8v3.2h-1.3v-6.7h1l0.2,1h0.1
		c0.2-0.3,0.5-0.5,0.9-0.7s0.7-0.3,1.2-0.3c1.6,0,2.3,0.8,2.3,2.5V43.4z"/>
</g>
<g class="st1">
	<g>
		<linearGradient id="SVGID_1_" gradientUnits="userSpaceOnUse" x1="50.0103" y1="73.6139" x2="50.0103" y2="58.6317">
			<stop  offset="0" style="stop-color:#FFFFFF"/>
			<stop  offset="1" style="stop-color:#11AC96"/>
		</linearGradient>
		<path class="st2" d="M45.1,73.6c0.7,0,1.6-0.4,2-0.9l10.6-13.1c0.4-0.5,0.2-0.9-0.4-0.9h-3.2c-0.7,0-1.5,0.4-1.9,1l-9.9,13
			c-0.4,0.5-0.2,1,0.5,1H45.1z"/>
	</g>
	<g>
		<linearGradient id="SVGID_2_" gradientUnits="userSpaceOnUse" x1="39.5349" y1="64.9082" x2="39.5349" y2="58.6317">
			<stop  offset="0" style="stop-color:#FFFFFF"/>
			<stop  offset="1" style="stop-color:#11AC96"/>
		</linearGradient>
		<path class="st3" d="M44,59.6c0.4-0.5,0.2-1-0.5-1h-7.9c-0.7,0-0.9,0.4-0.5,1l3.7,4.9c0.4,0.5,1.1,0.5,1.5,0L44,59.6z"/>
	</g>
	<g>
		<linearGradient id="SVGID_3_" gradientUnits="userSpaceOnUse" x1="39.5351" y1="73.6139" x2="39.5351" y2="58.6317">
			<stop  offset="0" style="stop-color:#FFFFFF"/>
			<stop  offset="1" style="stop-color:#11AC96"/>
		</linearGradient>
		<path class="st4" d="M39.5,73.6c0.3,0,0.9-0.4,1.3-1l9.9-13.1c0.4-0.5,0.2-1-0.5-1h-3c-0.7,0-1.5,0.4-1.9,1l-5.1,6.7
			c-0.4,0.5-1.1,0.5-1.5,0l-5.1-6.7c-0.4-0.5-1.3-1-1.9-1h-3c-0.7,0-0.9,0.4-0.5,1l9.9,13.1C38.6,73.2,39.2,73.6,39.5,73.6z"/>
	</g>
	<g>
		<linearGradient id="SVGID_4_" gradientUnits="userSpaceOnUse" x1="29.0053" y1="73.6139" x2="29.0053" y2="58.6317">
			<stop  offset="0" style="stop-color:#FFFFFF"/>
			<stop  offset="1" style="stop-color:#11AC96"/>
		</linearGradient>
		<path class="st5" d="M36.3,73.6c0.7,0,0.9-0.4,0.5-1l-9.9-13c-0.4-0.5-1.3-1-1.9-1h-3.3c-0.7,0-0.9,0.4-0.4,0.9l10.7,13.1
			c0.4,0.5,1.3,0.9,2,0.9H36.3z"/>
	</g>
</g>
<polygon class="st0" points="20.9,33.1 58,33.1 58,34.3 20.9,34.3 20.9,33.1 "/>
<g>
	<path class="st6" d="M43.9,57.1c0.4,0.5,0.2,1-0.5,1h-7.9c-0.7,0-0.9-0.4-0.5-1l3.7-4.9c0.4-0.5,1.1-0.5,1.5,0L43.9,57.1z
		 M45.3,57.1c0.4,0.5,0.2,1-0.5,1H34.1c-0.7,0-0.9-0.4-0.5-1l5.1-6.8c0.4-0.5,1.1-0.5,1.5,0L45.3,57.1z M50.7,57.1
		c0.4,0.5,0.2,1-0.5,1H28.7c-0.7,0-0.9-0.4-0.5-1l10.5-13.9c0.4-0.5,1.1-0.5,1.5,0L50.7,57.1z M52.1,57.1c0.4,0.5,0.2,1-0.5,1H27.3
		c-0.7,0-0.9-0.4-0.5-1l11.9-15.8c0.4-0.5,1.1-0.5,1.5,0L52.1,57.1z M57.7,57.2c0.4,0.5,0.2,0.9-0.5,0.9H21.5
		c-0.7,0-0.9-0.4-0.4-0.9l17.6-21.6c0.4-0.5,1.1-0.5,1.5,0L57.7,57.2z"/>
</g>
<g>
	<path class="st0" d="M42.9,31l-1.2-3.2h-4.4L36.2,31h-2l4.3-11.6h2.1L44.9,31H42.9z M41.3,26.2L40.2,23c-0.1-0.2-0.2-0.5-0.3-1
		c-0.1-0.5-0.2-0.8-0.3-1c-0.1,0.6-0.4,1.4-0.6,2.1l-1,3H41.3z"/>
	<path class="st0" d="M54.8,31l-1.2-3.2h-4.4L48.2,31h-2l4.3-11.6h2.1L56.9,31H54.8z M53.2,26.2L52.1,23c-0.1-0.2-0.2-0.5-0.3-1
		c-0.1-0.5-0.2-0.8-0.3-1c-0.1,0.6-0.4,1.4-0.6,2.1l-1,3H53.2z"/>
</g>
<g>
	<path class="st0" d="M33.1,25.1c0,1.9-0.6,3.4-1.8,4.4c-1.2,1-2.9,1.5-5.1,1.5h-3.6V19.3h4c2.1,0,3.7,0.5,4.8,1.5
		C32.5,21.8,33.1,23.3,33.1,25.1z M30.8,25.1c0-2.8-1.5-4.2-4.4-4.2h-1.8v8.5h1.5C29.3,29.4,30.8,28,30.8,25.1z"/>
</g>
</svg>
