<?xml version="1.0" encoding="UTF-8" standalone="no"?>
<!-- Created with Inkscape (http://www.inkscape.org/) -->
<svg id="svg2" xmlns="http://www.w3.org/2000/svg" xml:space="preserve" height="63.142" width="250" version="1.0"><path id="Harvard" fill="#231f20" d="m236.25 7.6096c-2.53 0-5.87 0.25-7.05 0.25-0.7 0-3.36-0.094-4.16-0.094v0.6564c1.4 0.263 2.16 0.7656 2.16 2.047v18.578c0 1.318-0.78 1.887-2.22 2.141v0.672c0.8 0 3.26-0.11 3.99-0.11 1.17 0 4.27 0.203 6.81 0.203 8.82 0 14.22-5.235 14.22-12.297 0-7.271-5.18-12.046-13.75-12.046v-0.0004zm-104.42 0.0624c-1.31 0-4.65 0.1876-5.83 0.1876-0.72 0-3.25-0.094-4.06-0.094v0.6564c1.52 0.254 2.12 0.9766 2.12 2.109v18.454c0 1.29-0.78 1.949-2.12 2.203v0.672c0.8 0 3.38-0.11 4.02-0.11 0.74 0 3.36 0.11 4.16 0.11v-0.672c-1.44-0.308-2.22-0.967-2.22-2.203v-8.266c0.41 0.042 0.75 0.096 1.12 0.156 1.84 0.299 2.85 1.14 3.68 2.203 1.32 1.669 3.7 5.051 5 6.641 1.52 1.835 3.06 2.531 5.04 2.531 0.9 0 2.1-0.13 2.84-0.297v-0.515c-1.54-0.07-3.02-1.635-4.14-3.016-1.14-1.369-4.02-5.385-5.04-6.578-0.84-0.976-1.66-1.453-1.66-1.453 3.66-0.895 6.06-3.051 6.06-6.266 0-4.065-3.22-6.453-8.97-6.453zm75.86 0c-1.32 0-4.65 0.1876-5.83 0.1876-0.72 0-3.24-0.094-4.05-0.094v0.6564c1.52 0.254 2.13 0.9766 2.13 2.109v18.454c0 1.29-0.79 1.949-2.13 2.203v0.672c0.8 0 3.36-0.11 4-0.11 0.75 0 3.38 0.11 4.19 0.11v-0.672c-1.45-0.308-2.24-0.967-2.24-2.203v-8.266c0.41 0.042 0.76 0.096 1.12 0.156 1.84 0.299 2.85 1.14 3.68 2.203 1.32 1.669 3.6 5.051 4.91 6.641 1.51 1.835 3.07 2.531 5.03 2.531 0.92 0 2.12-0.13 2.86-0.297v-0.515c-1.55-0.07-3-1.635-4.14-3.016-1.13-1.369-3.94-5.385-4.96-6.578-0.84-0.976-1.66-1.453-1.66-1.453 3.66-0.895 6.06-3.051 6.06-6.266 0-4.065-3.22-6.453-8.97-6.453zm-103.23 0.0156s-0.4 1.5634-0.72 2.3284l-7.68 18.515c-0.56 1.318-1.4 2.297-2.92 2.657v0.609l3.485-0.047c0.5 0 2.59 0.047 3.395 0.047v-0.609c-1.35-0.36-1.71-0.889-1.71-1.547 0-0.43 0.22-1.091 0.395-1.547l1.595-3.953h9l1.72 3.937c0.24 0.58 0.45 1.14 0.45 1.641 0 0.577-0.37 1.179-1.55 1.469l-0.02 0.609c0.9 0 3.5-0.047 4.13-0.047s3.35 0.047 4.23 0.047v-0.609c-1.61-0.405-2.25-1.328-2.82-2.61l-8.13-18.547c-0.32-0.773-0.7-2.3434-0.7-2.3434h-2.15zm76.23 0s-0.39 1.5634-0.71 2.3284l-7.7 18.515c-0.55 1.318-1.38 2.297-2.89 2.657l-0.01 0.609 3.56-0.047c0.49 0 2.52 0.047 3.31 0.047v-0.609c-1.34-0.36-1.69-0.889-1.69-1.547 0-0.43 0.19-1.091 0.38-1.547l1.58-3.953h9.02l1.72 3.937c0.25 0.58 0.44 1.14 0.44 1.641 0 0.577-0.36 1.179-1.54 1.469l-0.02 0.609c0.88 0 3.5-0.047 4.12-0.047s3.36 0.047 4.24 0.047v-0.609c-1.62-0.405-2.24-1.328-2.81-2.61l-8.13-18.547c-0.32-0.773-0.72-2.3434-0.72-2.3434h-2.15zm-116.94 0.078v0.6564c1.18 0.308 1.92 0.826 1.92 2.047v18.672c0 1.281-0.795 1.793-1.92 2.047v0.609c0.58 0 3.135-0.047 3.75-0.047 0.72 0 3.425 0.047 4.015 0.047v-0.609c-1.18-0.308-1.97-0.766-1.97-2.047v-8.828h13.925v8.828c0 1.281-0.78 1.793-1.91 2.047v0.609c0.59 0 3.235-0.047 3.955-0.047 0.61 0 3.225 0.047 3.815 0.047v-0.609c-1.185-0.308-1.985-0.817-1.985-2.047v-18.672c0-1.273 0.85-1.784 1.985-2.047v-0.6564c-0.59 0-3.205 0.094-3.815 0.094-0.72 0-3.365-0.094-3.955-0.094v0.6564c1.18 0.263 1.91 0.7746 1.91 2.047v7.797h-13.925v-7.797c0-1.273 0.845-1.784 1.97-2.047v-0.6564c-0.59 0-3.295 0.094-4.015 0.094-0.615 0-3.17-0.094-3.75-0.094zm81.14 0.047v0.672c1.37 0.308 2.18 1.1614 2.71 2.3284l9.48 21.156h1.82l8.63-20.375c0.81-1.907 1.71-2.714 3.17-3.1094v-0.672c-0.84 0-3.1 0.1094-3.64 0.1094-0.6 0-2.49-0.1094-3.26-0.1094v0.672c0.96 0.193 1.66 0.7064 1.66 1.453 0 0.6764-0.32 1.5614-0.79 2.7034l-5.86 14.125-6.21-14.11c-0.66-1.468-1.02-2.241-1.02-2.812 0-0.791 0.9-1.209 1.67-1.3594v-0.672c-0.87 0-3.43 0.1094-4.03 0.1094-0.64 0-3.48-0.1094-4.33-0.1094zm-14.19 1.3904c3.95 0 6.13 1.993 6.13 5.25 0 2.285-1.42 4.875-5.93 4.875-1.11 0-2.23-0.044-3-0.14v-9.735c0.82-0.1484 2-0.25 2.8-0.25zm75.88 0c3.95 0 6.11 1.993 6.11 5.25 0 2.285-1.42 4.875-5.93 4.875-1.11 0-2.23-0.044-3-0.14v-9.735c0.82-0.1484 2.01-0.25 2.82-0.25zm28.53 0c6.73 0 10.67 4.396 10.67 10.657 0 6.032-3.75 10.359-10.94 10.359-1.26 0-2.88-0.102-3.74-0.25v-20.516c0.92-0.1574 2.64-0.25 4.01-0.25zm-130.47 4.078l3.82 8.922h-7.4l3.58-8.922zm76.24 0l3.81 8.922h-7.38l3.57-8.922z"/><path id="Crimson-Fill" fill="#c5112e" d="m26.07 0.40085l-25.871 0.00674-0.05396 20.693c0 25.371 25.444 41.529 25.698 41.689l0.078 0.05c0.07 0 0.23-0.115 0.23-0.115 4.328-2.825 25.889-18.123 25.889-41.494v-20.787c-0.055-0.05206-25.97-0.04306-25.97-0.04306"/><path id="Border" d="m0.46205 21.09v-20.628l51.625 0.00009s-0.01 3.0733-0.01 20.761c0 26.136-26.028 41.457-26.028 41.457s-25.583-16.086-25.583-41.59h-0.00191-0.00204z" stroke="#000" stroke-width=".92410" fill="none"/><path id="Medical-School" fill="#c5112e" d="m170.04 42.781c-2.54 0-4.18 1.314-4.18 3.438 0 2.39 2.39 3.267 3.56 3.841 1.58 0.78 2.92 1.395 2.92 2.72 0 1.275-1.04 2.08-2.67 2.08-0.74 0-1.65-0.2-2.23-0.61-0.55-0.37-0.96-1.015-1.14-1.705h-0.34l0.02 2.595c0.92 0.115 1.96 0.595 3.71 0.595 2.91 0 4.51-1.46 4.51-3.5 0-2.16-1.88-3.042-3.6-3.797-1.42-0.623-2.94-1.405-2.94-2.828 0-1.001 0.7-1.953 2.36-1.954 1.47 0 2.83 0.524 3.28 2.016h0.34l0.03-2.531c-1.13 0.054-1.95-0.36-3.63-0.36zm-44.02 0.016c-3.9 0-6.58 2.729-6.58 6.531 0 3.587 2.1 6.407 6.67 6.407 2.19 0 3.49-0.73 4.41-0.625l0.14-2.765h-0.35c-0.62 1.78-2.05 2.465-4 2.465-3.46 0-4.7-3.07-4.7-5.544 0-3.022 1.55-5.547 4.42-5.547 1.71 0 3.35 0.843 4.05 2.469h0.36l-0.11-2.766c-1.21 0.063-2.39-0.625-4.31-0.625zm58 0c-3.9 0-6.58 2.729-6.58 6.531 0 3.587 2.12 6.407 6.68 6.407 2.18 0 3.5-0.73 4.41-0.625l0.13-2.765h-0.35c-0.62 1.78-2.04 2.465-4 2.465-3.45 0-4.7-3.07-4.7-5.544 0-3.022 1.55-5.547 4.42-5.547 1.69 0 3.35 0.843 4.05 2.469h0.36l-0.13-2.766c-1.2 0.063-2.37-0.625-4.29-0.625zm30.82 0c-3.91 0-6.4 2.934-6.4 6.516 0 3.602 2.49 6.422 6.4 6.422 3.9 0 6.4-2.85 6.4-6.422 0-3.6-2.5-6.516-6.4-6.516zm15.63 0c-3.91 0-6.39 2.934-6.39 6.516 0 3.602 2.48 6.422 6.39 6.422 3.9 0 6.39-2.85 6.39-6.422 0-3.6-2.49-6.516-6.39-6.516zm-138.53 0.125c-0.24 0.097-0.675 0.11-0.91 0.109h-7.825v0.36c0.78 0.13 1.105 0.504 1.105 1.094v9.5c0 0.665-0.415 1.01-1.105 1.14v0.345c0.395 0 1.755-0.065 2.125-0.065h3.95c1.345 0 2.055 0.005 3.25 0.11l0.345-2.575-0.345-0.08c-0.395 0.94-0.85 1.595-2.45 1.595h-3.77v-5.033h2.705c0.37 0 0.84 0.042 1.03 0.094 0.57 0.141 0.79 0.524 0.955 1.014h0.345c0-0.415-0.035-1.321-0.035-1.577 0-0.254 0.01-1.098 0.035-1.484h-0.345c-0.11 0.501-0.375 0.83-0.955 0.953-0.2 0.052-0.655 0.078-1.03 0.078h-2.705v-4.484h3.315c1.535 0 1.96 0.63 2.25 1.422h0.345l0.045-2.516h-0.325zm10 0.016c-1.31 0-2.94 0.14-3.55 0.14-0.365 0-1.74-0.062-2.155-0.062v0.344c0.715 0.133 1.125 0.395 1.125 1.062v9.578c0 0.69-0.405 0.975-1.155 1.11v0.345c0.415 0 1.68-0.05 2.06-0.05 0.605 0 2.115 0.11 3.425 0.11 4.54 0 7.31-2.71 7.31-6.359 0-3.759-2.66-6.218-7.06-6.218zm36.18 0.031s-0.19 0.807-0.36 1.203l-3.96 9.563c-0.3 0.685-0.72 1.19-1.5 1.375l-0.02 0.33 1.84-0.035c0.26 0 1.3 0.035 1.71 0.035l0.01-0.33c-0.7-0.185-0.88-0.46-0.88-0.8 0-0.22 0.11-0.56 0.21-0.795l0.81-2.045h4.66l0.9 2.03c0.13 0.3 0.22 0.59 0.22 0.845 0 0.305-0.2 0.605-0.8 0.765l-0.02 0.33c0.46 0 1.8-0.035 2.12-0.035s1.74 0.035 2.19 0.035l0.01-0.33c-0.83-0.21-1.14-0.675-1.45-1.345l-4.2-9.593c-0.17-0.396-0.37-1.203-0.37-1.203h-1.12zm54.04 0.047v0.344c0.61 0.157 1 0.428 1 1.062v9.623c0 0.66-0.42 0.93-1 1.065v0.33c0.3 0 1.66-0.035 1.98-0.035 0.37 0 1.77 0.035 2.06 0.035v-0.33c-0.6-0.16-1.01-0.405-1.01-1.065v-4.545h7.12v4.545c0 0.66-0.4 0.93-0.98 1.065v0.33c0.31 0 1.67-0.035 2.05-0.035 0.31 0 1.7 0.035 2 0.035v-0.33c-0.61-0.16-1.04-0.425-1.04-1.065v-9.623c0-0.658 0.44-0.929 1.04-1.062v-0.344c-0.3 0-1.69 0.062-2 0.062-0.38 0-1.74-0.062-2.05-0.062v0.344c0.61 0.133 0.98 0.404 0.98 1.062v4.031h-7.12v-4.031c0-0.658 0.43-0.929 1.01-1.062v-0.344c-0.29 0-1.69 0.062-2.06 0.062-0.32 0-1.68-0.062-1.98-0.062zm-80.22 0.015v0.344c0.74 0.158 1.12 0.498 1.12 1.141v9.469c0 0.665-0.36 1-1.12 1.14v0.345c0.41 0 1.84-0.065 2.17-0.065 0.39 0 1.71 0.065 2.13 0.065v-0.345c-0.76-0.155-1.13-0.505-1.13-1.14v-9.469c0-0.668 0.39-0.983 1.13-1.141v-0.344c-0.42 0-1.8 0.047-2.13 0.047-0.39 0-1.76-0.046-2.17-0.047zm35.66 0v0.344c0.74 0.167 1.12 0.498 1.12 1.141v9.469c0 0.665-0.37 1-1.12 1.14v0.345c0.41 0 1.83-0.065 2.16-0.065h3.99c1.34 0 2.06 0.005 3.25 0.11l0.34-2.575-0.34-0.08c-0.4 0.94-0.87 1.595-2.47 1.595h-3.77v-9.939c0-0.668 0.39-0.974 1.13-1.141v-0.344c-0.41 0.001-1.79 0.047-2.13 0.047-0.38 0-1.75-0.047-2.16-0.047zm92.15 0v0.344c0.75 0.167 1.13 0.498 1.13 1.141v9.469c0 0.665-0.36 1-1.13 1.14v0.345c0.43 0 1.86-0.065 2.19-0.065h3.98c1.34 0 2.05 0.005 3.24 0.11l0.34-2.575-0.34-0.08c-0.4 0.94-0.86 1.595-2.46 1.595h-3.76v-9.939c0-0.668 0.38-0.974 1.12-1.141v-0.344c-0.42 0.001-1.79 0.047-2.12 0.047-0.39 0-1.78-0.047-2.19-0.047zm-175.02 0.016v0.344c0.73 0.121 1.08 0.495 1.03 1.094l-0.705 9.235c-0.07 0.73-0.46 1.25-1.25 1.435v0.315l1.77-0.03c0.25 0 1.32 0.03 1.73 0.03v-0.315c-0.83-0.23-1.055-0.705-1.03-1.265l0.53-8.202 4.235 9.797h0.72l4.28-9.829 0.535 8.234c0.03 0.56-0.19 1.035-1.02 1.265v0.315c0.41 0 1.88-0.03 2.145-0.03l2.14 0.03v-0.315c-0.79-0.185-1.175-0.635-1.25-1.435l-0.655-9.235c-0.05-0.614 0.24-0.937 0.98-1.094v-0.344c-0.495 0-1.325 0.031-1.625 0.031-0.28 0-0.885-0.031-1.295-0.031l-4.11 9.548-4.08-9.548c-0.39 0-1.055 0.031-1.34 0.031-0.295 0-1.25-0.031-1.735-0.031zm150.1 0.656c2.92 0 4.2 2.721 4.2 5.61 0 2.882-1.28 5.517-4.2 5.517-2.91 0-4.22-2.635-4.22-5.517 0-2.889 1.31-5.61 4.22-5.61zm15.63 0c2.91 0 4.2 2.721 4.2 5.61 0 2.882-1.29 5.517-4.2 5.517s-4.21-2.635-4.21-5.517c0-2.889 1.3-5.61 4.21-5.61zm-129.13 0.063c3.48 0 5.52 2.26 5.52 5.484 0 3.265-1.94 5.36-5.64 5.36-0.66 0-1.41-0.055-1.86-0.125v-10.594c0.475-0.079 1.28-0.125 1.98-0.125zm36.9 2.078l1.98 4.611h-3.83l1.85-4.611z"/><path id="Lion-Rampant-Black" stroke-width="0.188" d="m36.495 51.185c0-0.005-0.009-0.005-0.018-0.015h0.018-0.009 0.027-0.009 0.009c-0.166-0.14-0.378-0.41-0.492-0.51-0.203-0.912 1.22-1.519 0.51-2.494-0.166-0.578-0.036-1.316-0.607-1.765-0.402-0.333-0.949-0.396-1.423-0.702 0-0.238 0.308-0.166 0.474-0.238 0.747-0.202 1.423 0.713 1.961 0.036 0.069-0.51-0.405-0.949-0.74-1.281-1.115-0.783-2.81-0.475-3.653-1.662l0.105-0.097c1.082 0.23 2.258 0.036 3.074-0.674 0.474-0.607 0.948-1.221 1.686-1.423 0.748-0.571 0.843-1.52 0.843-2.469 0.036-0.369 0.202-0.701 0.474-0.973 0.405-0.378 1.45-0.239 1.248-1.021-0.571-0.297-1.176-0.571-1.852-0.499-0.309-0.166 0.069-0.405 0.166-0.544 1.081-0.713 2.774-1.151 2.705-2.732-0.106-0.175-0.07-0.44-0.342-0.474-0.475 0.06-0.738 0.508-1.178 0.71-1.019 0.571-2.3 0.466-3.276 1.082-0.209 0-0.139-0.272-0.07-0.344 0.369-0.508 1.115-0.535 1.387-1.176 0.203-0.511 0.299-1.185 0.871-1.387 0.341-0.272 0.888-0.272 1.088-0.677-0.034-0.238-0.306-0.369-0.508-0.438-0.985-0.308-1.925 0.272-2.599 0.939-0.713 0.306-1.52 0.578-2.064 1.158-0.097 0.027-0.272-0.034-0.272-0.211-0.133-1.342 1.088-2.327 1.958-3.134 0.65-0.176 1.185-0.949 1.931-0.616 0.502 0.274 1.046 0.546 1.65 0.344 0.747-0.272 0.915-1.115 1.59-1.52 0.51-0.166 1.212 0.571 1.52-0.14 0.166-0.739-0.439-1.178-0.774-1.722 0.405-1.045 0.097-2.257-0.746-3.003-0.403-0.239-0.913-0.405-1.387-0.272-0.369 0.474 0.344 0.782 0.377 1.247 0.167 1.932-1.931 2.37-3.179 3.179-2.363 1.185-5.234 3.004-5.4 6.041 0.034 1.696 0.738 3.18 1.889 4.367 0.604 1.043 1.589 2.019 1.211 3.345-0.229 0.535-0.87 0.605-1.38 0.605-2.028-0.14-3.143-2.397-3.986-3.95-0.272-0.616-0.607-1.187-0.677-1.898 0.106-0.097 0.202-0.063 0.308 0 0.369 0.342 0.333 1.149 0.976 1.055 0.508-0.713 0.139-1.556-0.133-2.267-0.368-0.64-1.151-0.984-1.459-1.661-0.034-0.499 0.713-0.2 0.749-0.702-0.274-0.879-0.308-1.792-0.203-2.608 0.131-0.368 0.675-0.335 0.675-0.809-0.236-0.843-0.236-1.686-0.2-2.599 0.097-0.544 0.535-1.115 0.236-1.686-0.605-0.176-0.106-0.913-0.677-1.088-1.149 0-1.992-0.607-2.977-0.976-0.501-0.13-0.879 0.166-1.281 0.272-0.641 0.133-1.317 0.133-1.756 0.607-0.308 0.369-0.238 0.773-0.238 1.282-0.097 0.308-0.369 0.035-0.502 0-0.474-0.273-0.649-0.774-0.508-1.282 0.061-0.238-0.036-0.474-0.238-0.641-0.306-0.202-0.746-0.308-1.115-0.168-0.475 0.168-0.605 0.703-0.807 1.117-0.036 0.333 0.036 0.737 0.202 1.009 0.677 0.711 1.617 0.974 2.363 1.59 0.13 0.402-0.133 0.807-0.405 1.149-0.036 0.371 0.508 0.371 0.439 0.704-0.544 0.141-1.079 0.036-1.484-0.299-0.272-0.237-0.342-0.747-0.783-0.817-0.402 0-0.474 0.545-0.64 0.817-0.131 0.299-0.034 0.809-0.299 1.045l-0.306-0.036c-1.389-0.474-2.635-1.212-3.856-2.125-0.703-0.544-1.212-1.351-1.756-2.063-0.265-0.844-0.404-2.028-1.486-2.291-0.236 0.024-0.535 0.06-0.571 0.332l-0.07 0.342c-0.535 0-1.079-0.378-1.65-0.175-0.272 0.175-0.544 0.377-0.7125 0.64-0.034 0.616 0.7125 0.378 0.809 0.853 0 0.44 0.342 0.809 0.5445 1.108-0.1395 0.236-0.405 0.375-0.5445 0.614l-0.335 0.843c0.133 0.272 0.299 0.605 0.643 0.641 0.4745-0.203 0.8775 0.132 1.3875 0.069 0.299 0.027 0.807-0.236 0.843 0.265 0.167 0.412 0 0.781-0.036 1.149-0.438 0.641-1.018 1.115-1.659 1.423-0.2025 0.133-0.2025 0.439-0.133 0.641 0.239 0.335 0.774 0.203 1.151 0.167 0.711-0.034 1.248-0.439 1.923-0.508 0.168 0.341 0.44 0.746 0.773 0.912 0.544 0.142 0.677-0.604 1.221-0.404 0.438 0.344 0.308 0.984 0.713 1.389 0.024 0.236-0.203 0.236-0.344 0.333-0.571 0.202-1.379 0-1.817 0.474-0.072 0.272 0.166 0.511 0.369 0.607 0.499 0.272 1.149 0.342 1.756 0.439 0.535 0.069 1.115-0.133 1.616 0l-0.168 0.272-1.651 1.115c-0.746 0.308-1.553 0.474-2.23 0.843-1.045 0.272-1.484-1.046-2.433-0.976-0.404 0-0.676 0.133-0.9485 0.371-0.236 0.236-0.272 0.605-0.2025 0.913 0.1415 0.299 0.58 0.166 0.58 0.499-0.036 0.949-0.852 1.625-0.9125 2.61-0.036 0.227 0.0335 0.535 0.299 0.641 0.175 0.097 0.4385 0.034 0.5775-0.106 0.203-0.202 0.203-0.51 0.538-0.571 0.578 0.061 1.185 0.061 1.589-0.377 0.2-0.027 0.403 0.175 0.403 0.341 0 0.239 0 0.511 0.238 0.607 0.843 0.034 1.246-0.843 1.623-1.45 0.371-0.07 0.774-0.342 1.142-0.105 0.142 0.58-0.332 0.984-0.429 1.519 0.027 0.142 0.202 0.272 0.369 0.308 1.009-0.132 1.589-1.081 2.196-1.827 0.095-0.201 0.2-0.475 0.508-0.475 0.774 0.238 0.976-0.701 1.45-1.043h0.201c0.071 0.236-0.097 0.402 0 0.641 0.335 0.368 0.712-0.036 1.045-0.097l0.713-0.438c0.843 0.263 1.72 0.465 2.599 0.674 0.71 0.263 0 1.012 0.438 1.45-0.097 0.236-0.402 0.308-0.71 0.308-1.484 0.2-3.206-0.202-4.391 0.913l-0.713 0.701c-1.106 0.036-1.686 0.985-2.696 1.152-0.676 0.474-1.722-0.203-2.16 0.571 0.335 0.71 1.178 0.948 1.924 1.151 0.306 0.139 0.807-0.036 0.974 0.305 0.036 0.335 0.106 0.74 0.51 0.88 0.308 0.096 0.475-0.342 0.747-0.106 0.368 0.51 0.912 0.746 1.211 1.221-0.238 0.438-0.809 0.166-1.211 0.166l-0.07-0.034c-0.607 0.07-1.389 0.369-1.855-0.202-0.65-0.474-1.149-1.212-2.064-1.212-0.508 0.131-1.043 0.333-1.149 0.904-0.063 0.342 0.272 0.474 0.403 0.677-0.605 0.411-1.246 1.045-1.046 1.861 0.072 0.167 0.133 0.369 0.371 0.369 0.306 0 0.544-0.272 0.843-0.106 0.07 0.511-0.063 1.291 0.545 1.529 0.474-0.07 0.816-0.58 1.317-0.202 0.508 0.238 0.913-0.236 1.351-0.378 0.713 0 0.976 0.677 1.212 1.185 0.441 0.333 1.054 0.878 1.661 0.548 0.403-0.582-0.368-1.319 0.403-1.697 0.474-0.133 0.879 0.034 1.353-0.072 0.738 0.072 1.651 0.142 2.064-0.665l0.668-1.152 0.139-0.712c0.439-0.131 1.082 0.571 1.284-0.097-0.238-0.683-0.308-1.351-0.202-2.097 0.13-0.511 0.368-0.985 0.71-1.318l0.167 0.07c0.202 0.843 0.238 1.686 0.607 2.468-0.07 0.774-0.475 1.448-0.571 2.222-0.203 0.816-0.783 1.459-1.52 1.827-0.176 0.14-0.308 0.369-0.203 0.605 0.203 0.378 0.704 0.167 1.082 0.238 1.045-0.132 2.019-0.642 2.731-1.414 0.747 0.203 1.116-0.712 1.79-0.308 0.713 0.544 1.994-0.404 2.266 0.747-0.105 0.535 0.405 1.52-0.474 1.755-0.877-0.14-1.886-1.29-2.765-0.27-0.212 0.2-0.342 0.475-0.212 0.745 0.142 0.24 0.308 0.535 0.07 0.735-0.236 0.405-0.571 0.915-0.369 1.425 0.169 0.3 0.511 0.3 0.81 0.24 0.508-0.205 0.982 0.225 1.483 0.26 0.439 0.345 0.877 0.75 1.457 0.71 0.239-0.13 0.203-0.435 0.369-0.64 0.369-0.305 1.151-0.235 1.151-0.91 0.097-0.505 0.535-0.96 0.976-1.22 0.096 0.035 1.079-0.215 1.351-0.69z" stroke="#000"/><path id="Lion-Rampant-White" fill="#fff" d="m20.703 21.36c-0.332 0.06-0.434 0.431-0.506 0.73-0.06 0.439 0.174 0.783 0.506 1.012 0.879 0.414 1.63 1.095 2.473 1.63h0.281c-0.447-0.915-1.544-1.137-2.248-1.911-0.272-0.369-0.274-0.798-0.168-1.236 0-0.167-0.171-0.261-0.338-0.225zm4.834 0c-0.605 0.438-1.509 0.18-2.08 0.618-0.341 0.299 0.214 0.684-0.224 0.956-0.07 0.229 0.036 0.395 0.168 0.562 0.571 0.508 1.304 1.104 1.068 1.911-0.405 1.011-1.003-0.189-1.574-0.225-0.202 0.036-0.337 0.213-0.337 0.449 0.061 0.133 0.207 0.113 0.337 0.113 0.133 0.07 0.315 0.191 0.281 0.393-0.036 0.439-0.368 0.859-0.843 0.956-0.546 0.238-1.234 0.103-1.742-0.169-0.299-0.096-0.409-0.542-0.787-0.506-0.474 0.466-0.049 1.073 0.056 1.574-1.151 1.151-2.07 2.698-3.485 3.541-0.368 0.202-0.816 0.254-1.124 0.562 0.133 0.097 0.324 0.169 0.562 0.169 1.221-0.034 2.467-0.239 3.485-0.843 0.405-0.203 0.659-0.625 1.124-0.731 0.544 0.238 0.043 0.812 0.281 1.18 0.306 0.097 0.416-0.204 0.619-0.337 0.175-0.103 0.4-0.182 0.505 0.056 0.439 1.246 0.095 2.595-0.337 3.71 0.263 0.07 0.304-0.218 0.506-0.281 0.843-1.221 1.841-2.372 2.08-3.822 0.71-0.333 0.685 0.749 1.124 1.012 0.369-0.263 0.38-0.891 0.449-1.293 0.097-0.133 0.232-0.097 0.338 0 0.368 0.614 0.82 1.286 1.461 1.63 0.411 0.13 0.798 0.429 1.237 0.393-0.034-0.571-0.648-0.683-0.956-1.124-0.166-0.402-0.393-0.782-0.393-1.293 0.105-0.305 0.472-0.296 0.674-0.393 0.036-0.438-0.106-0.852 0-1.293 0.061-0.544-0.337-1.639 0.506-1.911l0.056-1.349c-0.036-0.202-0.337-0.303-0.337-0.506 0-0.377 0.346-0.458 0.45-0.73 0.096-0.335 0.191-0.677 0.224-1.012 0-0.106-0.128-0.225-0.224-0.225-0.412-0.034-0.317-0.472-0.45-0.674-0.949-0.236-1.653-1.043-2.698-1.068zm-13.883 0.225c-0.062 0.035-0.104 0.159-0.112 0.337-0.072 0.166 0.022 0.452 0.225 0.618 0.096 0.072 0.26 0.187 0.393 0.056 0.07-0.132 0.034-0.274 0-0.449 0-0.204-0.321-0.669-0.506-0.562zm-1.7425 0.281c-0.2025 0.202 0.0695 0.647 0 0.955 0.0695 0.508 0.6835 0.306 0.9555 0.675 0.405 0.676-0.551 0.71-0.787 1.124-0.308 0.474 0.396 0.297 0.562 0.674 0.405 0.203 0.664-0.258 1.068-0.225 0.405 0.169 0.682 0.628 0.787 1.068 0.403 0.983-0.402 1.792-0.843 2.53 0.677 0.105 1.171-0.549 1.742-0.787 0.509 0.132 0.052 0.739 0.394 1.011 0.335 0.239 0.623-0.204 0.955-0.168 1.046 0.036 0.969 1.218 1.574 1.798 0.106 0.07 0.261 0.09 0.394 0.057 0.604-0.547 1.05-1.248 1.63-1.855 0.202-0.2 0.407-0.459 0.337-0.731-1.756-0.474-3.271-1.542-4.721-2.754-0.641-0.78-1.336-1.688-2.249-2.136-0.474-0.501-0.982-1.297-1.7985-1.236zm15.4 0.168c0.097-0.008 0.194 0.064 0.281 0.113 0.369 0.202 0.681 0.544 0.956 0.843 0.06 0.236-0.099 0.413-0.337 0.449-0.403 0.034-0.826-0.029-1.125-0.337-0.308-0.229-0.117-0.6-0.056-0.899 0.071-0.083 0.184-0.16 0.281-0.169zm15.569 0.338c-0.06 0.166-0.092 0.281-0.056 0.449-0.106 1.659-1.753 2.527-3.035 3.204-2.327 1.115-5.236 2.691-5.508 5.564-0.297 3.038 3.588 4.571 3.147 7.644-0.103 0.641-0.685 1.037-1.124 1.406-1.616 0.474-3.197-0.538-4.215-1.855-1.318-1.556-1.999-3.409-2.473-5.34-0.342-0.405-0.895-0.537-1.237-1.012-0.737-0.368-0.701 0.787-1.405 0.787-0.378 0.036-0.25-0.465-0.618-0.393l-0.9 1.293c-0.227 0.474-0.838 0.813-0.899 1.349 0.263 0.51 1.064 0.283 1.574 0.449 0.771 0.142 1.268 0.812 1.911 1.181 1.149 1.045 1.529 2.5 1.293 4.046-0.342 1.327 0.159 2.559 0.562 3.71 0.211 0.501-0.122 0.971-0.394 1.349-0.13 0.701-0.366 1.437-0.674 2.08-0.097 0.272-0.358 0.55-0.225 0.786 0.982-0.175 1.563-1.101 1.967-1.911 0.2-0.236 0.452 0.003 0.618 0.169 0.212 0.106 0.284-0.133 0.45-0.169 0.211-0.096 0.387 0.039 0.562 0.169 0.441 0.441 1.135 0.227 1.743 0.394 0.64 0.071 1.295 0.483 1.461 1.124-0.097 0.501 0.175 0.993 0.112 1.575-0.402 1.21-1.872 1.385-2.979 1.515-0.211 0.14-0.532 0.255-0.505 0.565 0.105 0.235 0.323 0.315 0.562 0.445 0.508 0.275 0.706-0.43 1.18-0.335 0.369 0.14 0.07 0.495 0.281 0.73 0.299 0.07 0.501-0.08 0.843-0.055 0.405-0.06 0.641-0.43 0.675-0.845 0.175-0.495 0.831-0.615 1.067-1.125 0.203-0.13 0.529 0.055 0.731-0.11-0.371-0.71-0.072-1.432 0.394-1.967 0.105-0.474 0.011-0.924-0.225-1.293v-0.787c-0.239-0.607-0.954-0.55-1.462-0.786-0.51-0.405-1.308-0.659-1.405-1.406 0.036-0.096 0.119-0.258 0.225-0.224 0.668 0.272 1.459 0.152 2.136 0.056 0.202 0.036 0.506 0.123 0.506-0.113-0.072-0.132-0.205-0.247-0.337-0.281-1.082-0.344-2.24-0.364-3.092-1.18-0.333-0.571-0.886-0.962-0.955-1.63 0.58-0.641 1.122 0.295 1.798 0.225 0.949 0.106 1.902-0.097 2.473-0.843 0.335-0.299 0.277-0.87 0.787-1.012 1.747-0.306 0.699-2.345 1.743-3.26 0.141-0.306 0.751-0.306 0.618-0.674-0.58-0.072-1.039 0.22-1.574 0.281-0.142-0.061-0.247-0.171-0.281-0.338 0.369-1.115 1.414-2.045 2.529-2.416 0.131-0.034 0.342-0.232 0.281-0.338-1.317 0.07-2.673 0.214-3.541 1.293-0.211 0.133-0.492 0.427-0.73 0.225-0.236-0.236-0.205-0.648-0.169-0.956 0.061-0.604 0.537-1.113 1.012-1.517 0.641-0.203 0.922-0.89 1.124-1.462-0.036-0.139-0.155-0.056-0.225-0.056-0.441 0.272-0.931 0.452-1.405 0.619-0.809 0.175-1.072 0.969-1.405 1.573-0.142 0.072-0.317 0.072-0.45 0-0.544-0.604-0.587-1.445-0.393-2.192 0.447-1.958 2.219-3.105 3.878-3.878 0.641-0.272 1.086 0.288 1.63 0.393 1.284 0.036 1.473-1.65 2.754-1.686 0.036-0.299-0.364-0.402-0.506-0.674-0.13-0.502 0.387-0.814 0.281-1.349-0.034-0.441-0.031-1.014-0.506-1.18zm-12.871 1.011c0.131-0.096 0.414-0.034 0.45 0.169 0 0.263-0.115 0.528-0.281 0.731-0.167 0.105-0.324 0.053-0.394-0.113-0.069-0.308 0.057-0.611 0.225-0.787zm-2.023 2.417c0.132-0.034 0.267 0.063 0.337 0.169l-0.056 0.562c-0.578 0.643-0.583 1.654-1.462 2.023-0.236 0.036-0.422-0.101-0.449-0.337-0.036-0.369-0.133-0.868 0-1.237 0.377-0.202 0.481 0.567 0.787 0.225 0.132-0.537 0.571-0.964 0.843-1.405zm-6.127 6.183c-0.202 0-0.359 0.042-0.562 0.112-1.317 1.282-2.689 2.563-4.384 3.204-1.081 0.202-1.897 0.888-2.979 1.124-0.535 0.308-1.392 0.398-1.461 1.18 0.272 0.131 0.557 0.225 0.899 0.225 0.441 0 0.515-0.458 0.787-0.73 0.166-0.167 0.366-0.05 0.506 0.056 0.132 0.404 0.537 0.479 0.843 0.618 0.299-0.034 0.38-0.326 0.45-0.562 0.272-0.51 0.903-0.542 1.405-0.506 0.236-0.106 0.515-0.258 0.787-0.225 0.64 0.133 0.274 0.92 0.337 1.349 0.105 0.106 0.288 0.007 0.393-0.056 0.466-0.508 0.74-1.102 1.012-1.742 0.13-0.133 0.299-0.434 0.562-0.338 0.641 0.817 0.728-0.431 1.237-0.562 0.368-0.166 0.903 0.119 1.236-0.224 0.344-0.605 0.38-1.433 0.45-2.136-0.167-0.508-0.643-0.043-1.012-0.113-0.378-0.06-0.375-0.411-0.506-0.674zm-8.88 2.923c-0.046 0.025-0.086 0.109-0.113 0.168 0.034 0.306-0.087 0.641 0.113 0.843 0.377 0.167 0.881 0.034 1.18-0.168 0-0.405-0.495-0.493-0.731-0.731-0.125-0.079-0.313-0.188-0.449-0.112zm14.838 3.934l-1.686 0.506c-1.686 0.07-3.692-0.007-4.665 1.574l-0.956 0.112c-0.64 0.308-1.254 0.76-1.967 0.899-0.202 0.133-0.549 0.074-0.618 0.338 0.438 0.344 1.065 0.112 1.574 0.112 0.263 0.097 0.323 0.436 0.393 0.674 0.272 0.131 0.459-0.209 0.731-0.112 0.166 0.072 0.267 0.227 0.337 0.393 0.133 0.88 1.23 1.062 1.574 1.799 0.166 0.272 0.056 0.652-0.113 0.899-0.272 0.369-0.798 0.261-1.236 0.225-0.81-0.025-1.502-0.216-2.249 0.056-1.151 0.203-2.277-0.528-3.259 0.113-0.072 0.069-0.129 0.231-0.057 0.337l1.181 0.506c0.166 0.202-0.09 0.472-0.057 0.674l0.619 0.169c0.438 0.369 0.859-0.079 1.236-0.281 0.439-0.306 0.812 0.092 1.181 0.225 0.236 0.139 0.564-0.047 0.73 0.225 0.236 0.272 0.097 0.915 0.562 0.843 0.14-0.333 0.347-0.664 0.619-0.9 0.807-0.71 1.848-0.251 2.866-0.393 0.677-0.061 0.501-0.852 1.012-1.124 0.333-0.571-0.263-0.911-0.562-1.349-0.236-0.537 0.137-1.16 0.506-1.574 0.71-0.13 0.627 0.776 0.899 1.18 0.106 0.097 0.281 0.308 0.45 0.169 0.033-0.535 0.056-1.059 0.056-1.63 0.202-0.816 0.771-1.533 1.349-2.08 0.274-0.438 0.301-0.784 0.337-1.292-0.097-0.475-0.218-1.16-0.787-1.293zm-10.904 6.014c-0.125-0.02-0.266-0.003-0.393 0.056-0.036 0.194 0.078 0.565 0.281 0.731 0.341 0.034 0.712 0.146 1.011-0.056-0.178-0.329-0.523-0.67-0.899-0.731zm15.625 6.071c-0.04 0.025-0.104 0.095-0.112 0.17 0.061 0.065 0.083 0.145 0.225 0.11 0.07 0 0.306 0.065 0.281-0.11-0.054-0.1-0.272-0.245-0.394-0.17z"/><path id="Black-Stripe" stroke-width="0.188" d="m0.48902 15.463h51.565v3.547h-51.565l-0.00194-3.547h0.00098 0.00098z" stroke="#000"/><path id="White-Rectangles" fill="#fff" d="m38.831 16.094h5.859v2.284h-5.859v-2.284zm-12.734 0h5.85v2.284h-5.85v-2.284zm-12.831 0h5.859v2.284h-5.859v-2.284zm-12.163 0h5.3215v2.284h-5.3215l-0.0002-2.284h0.0002z"/><path id="Book-1-Black" stroke-width=".19278" d="m8.9355 2.9914c1.7135-0.7374 3.6385-0.2114 5.5245-0.317 0.483 0.1056 1.221-0.2451 1.538 0.281 0 0.553 0 1.0814 0.036 1.6435 0.175 0.3845 0.737 0.0697 1.043 0.281 0.177 0.1035 0.387 0.2001 0.423 0.4117 0.105 0.245 0.036 0.528-0.106 0.773-0.351 0.387-0.798 0.245-1.255 0.351l-0.141 0.211c0.069 1.0094-0.212 1.9224 0 2.898-0.036 0.2114-0.106 0.4924 0.141 0.6324 0.49 0 0.974 0 1.325 0.317 0.141 0.245 0.141 0.553 0.072 0.834-0.212 1.054-1.819-0.142-1.644 1.088 0 0.456 0.106 1.081-0.07 1.502-1.888 0-3.81-0.14-5.593-0.034-0.3175 0.281-0.738 0.457-1.1875 0.49-0.387-0.069-0.668-0.281-0.9825-0.49-1.7135-0.072-3.3905-0.072-5.034-0.106-0.526-0.456-0.1393-1.187-0.3147-1.852-0.281-0.317-0.7037-0.072-1.0094-0.247-0.2474-0.034-0.317-0.281-0.4564-0.457 0-0.378 0-0.695 0.281-0.94 0.281-0.211 0.6587-0.175 1.0095-0.211l0.1753-0.1754c-0.1056-1.151 0.1754-2.2396-0.0697-3.46-0.1776-0.245-0.4923-0.034-0.7037-0.2116-0.3147-0.0694-0.6227-0.1754-0.7284-0.526-0.0697-0.281-0.1417-0.562 0.1394-0.7981 0.3867-0.4227 1.0454 0.0697 1.3984-0.3529l0.1394-1.6772c0.281-0.4924 0.9398-0.2451 1.4321-0.2451 0.8432-0.1754 1.8887-0.036 2.8012 0 0.623 0.0337 1.2545 0.1393 1.8165 0.3867z" stroke="#000"/><path id="Book-1-White" fill="#fff" d="m9.7 12.933c0.07 0.281 0.036 0.632-0.209 0.773-0.1415 0.176-0.4135 0.209-0.625 0.104-0.2115-0.034-0.245-0.281-0.281-0.457-0.0695-0.386 0.317-0.517 0.5285-0.807 0.272 0.043 0.447 0.22 0.5865 0.387m-5.663-9.715c-0.317 0.2384-0.7284 0.6948-0.589 1.1174 0.1326 2.9316 0 5.558 0.1326 8.3156l0.2451 0.282c1.3693 0 2.8713-0.142 4.1973 0.105 0.07 0.034 0.07 0.14 0.036 0.21-0.351 0.141-0.773 0.072-1.151 0.072l-3.5657-0.072c-0.245-0.21-0.1394-0.702-0.1394-0.974 0-0.351 0.1057-0.773-0.281-0.985-0.4924-0.105-0.9847 0.036-1.2995-0.35 0.2451-0.695 1.3692-0.133 1.5805-0.904 0.1057-1.2996-0.1056-2.592-0.0359-3.813-0.1417-0.7016-0.9128-0.49-1.4052-0.596-0.0697-0.0696-0.1664-0.175-0.1394-0.317 0.4204-0.4114 1.2635 0.07 1.5805-0.517 0.1394-0.5621 0.0338-1.0904 0.1057-1.6075 0.1754-0.1754 0.4811-0.1754 0.7284-0.1057v0.1394-0.0002zm11.468 0c0.106 0.5554-0.139 1.2928 0.212 1.8456 0.35 0.2114 0.879 0.106 1.229 0.1754 0.14 0.1396 0.106 0.351 0.036 0.4926-0.386 0.3864-1.196-0.106-1.405 0.526 0 1.3624-0.072 2.6864 0.034 4.0924l0.211 0.175c0.457 0.072 1.019-0.103 1.327 0.238 0.034 0.212 0 0.421-0.203 0.493-0.456 0.105-1.124-0.142-1.369 0.35-0.105 0.562 0.07 1.124-0.105 1.678l-0.248 0.105-4.926-0.069c-0.105-0.072 0-0.142 0.034-0.212l0.492-0.175 3.989 0.034c0.411-0.104 0.411-0.623 0.447-0.94-0.036-1.958 0-3.6694-0.036-5.558-0.033-0.949 0.142-1.8526-0.069-2.7676-0.036-0.209-0.342-0.3507-0.378-0.5868 0.211-0.1056 0.589-0.1056 0.728 0.1034m-1.079 9.195c-0.105 0.212-0.422 0.106-0.632 0.176h-1.117c-0.913-0.043-1.817-0.104-2.624 0.063-0.1415-0.027-0.283-0.133-0.283-0.308 0.1055-0.317 0.492-0.212 0.773-0.317 1.082 0.036 2.381-0.034 3.427 0 0.175 0.072 0.351 0.211 0.456 0.386m0.387-8.57c-0.036 2.837 0.034 5.6296-0.072 8.184-0.07 0.141-0.209-0.034-0.315-0.104-0.175-0.422-0.036-0.948-0.036-1.362-0.105-2.2754 0-4.5844 0-6.8934 0.142-0.1754 0.351 0.0337 0.423 0.1753m-6.1225-0.4227l0.142 0.317c0.0695 2.3448 0.0695 4.7258 0.0695 7.1748l-0.0695 0.906c-0.5985 0.033-1.1965-0.281-1.855-0.212-0.668-0.069-1.405 0.07-1.9919-0.105-0.353-0.798-0.1057-1.6078-0.1777-2.4758 0.036-1.758 0.072-3.8914 0.072-5.78 0-0.1393 0.1751-0.2022 0.2811-0.236 1.2205 0.0967 2.547-0.2113 3.5295 0.4114m5.2075-0.1753c0 2.8369 0 5.533-0.034 8.2917-1.396 0.139-2.97-0.106-4.373 0.281-0.308-0.281-0.072-0.738-0.1325-1.115-0.07-0.9152 0-1.9247-0.045-2.8737 0.045-1.36-0.061-2.8979 0.045-4.2334 0.202-0.4114 0.6945-0.5531 1.1515-0.5531l3.284 0.036 0.104 0.1664v0.0002-0.0001zm-5.3465 9.0287c0.0335 0.175-0.142 0.342-0.3175 0.411-1.115-0.305-2.3445-0.096-3.5295-0.236l-0.036-0.036c0.0697-0.209 0.2451-0.386 0.4925-0.386 1.1845 0 2.336 0 3.3905 0.247m-4.164-8.7477c0.1394 2.8369-0.036 5.56 0.036 8.2557-0.036 0.141-0.1776 0.317-0.353 0.317-0.2091-0.879-0.1754-1.713-0.1057-2.5927-0.0697-1.7825-0.0337-3.7745-0.0337-5.5575 0.0697-0.1752 0.2811-0.3529 0.4564-0.4226"/><path id="Book-2-Black" stroke-width=".19278" d="m32.552 2.6047c0.211-0.036 0.422 0.1393 0.598 0.2451 0.175 0.6586-0.036 1.2208 0.139 1.8525 0.459 0.1776 1.117 0.0359 1.362 0.5893 0.106 0.245 0.106 0.6674-0.069 0.879-0.353 0.456-1.151 0.0334-1.396 0.562-0.072 1.2544-0.106 2.1334 0 3.3184 0.35 0.353 0.982 0.072 1.29 0.528 0.175 0.21 0.245 0.448 0.175 0.729-0.281 0.456-0.87 0.456-1.362 0.562-0.209 0.175 0 0.492-0.103 0.737-0.178 0.448 0.245 1.01-0.281 1.291-1.433 0.211-2.795-0.07-4.27 0.036l-1.396 0.034c-0.387 0.247-0.834 0.634-1.326 0.353l-0.877-0.387c-1.046 0.034-2.03-0.036-3.076 0-0.701-0.036-1.677 0.281-2.134-0.387 0-0.562 0.106-1.115-0.033-1.677-0.529-0.175-1.399 0.07-1.68-0.598-0.069-0.202 0-0.483 0.072-0.693 0.387-0.562 1.255-0.072 1.641-0.528l-0.033-1.5354c0.103-0.7376-0.036-1.3356-0.036-2.0306-0.526-0.209-1.432 0.072-1.538-0.7374-0.07-0.42 0.175-0.7642 0.562-0.834 0.344-0.1056 0.834 0.0698 1.012-0.245l0.103-1.6435c0.423-0.7015 1.432-0.2811 2.064-0.3867l3.179 0.036c0.492 0.0696 0.949 0.553 1.441 0.245 1.889-0.7711 4.013-0.1034 5.972-0.3147z" stroke="#000"/><path id="Book-2-White" fill="#fff" d="m32.763 3.2449c0 0.6317-0.036 1.1938 0.106 1.8187 0.42 0.387 1.607-0.1662 1.36 0.7734-0.378 0.245-0.904 0.07-1.324 0.1396l-0.106 0.1414c-0.175 1.3966 0.106 2.835 0 4.092 0.034 0.14 0.106 0.387 0.315 0.412 0.386 0.045 0.984-0.236 1.115 0.256-0.061 0.834-1.149 0.07-1.43 0.728-0.106 0.632 0.175 1.185-0.072 1.783l-0.175 0.106c-1.783-0.036-3.53-0.036-5.207-0.07-0.07-0.036-0.036-0.141 0.036-0.177l0.314-0.176c1.397-0.139 2.934 0 4.409-0.139 0.212-0.036 0.378-0.203 0.342-0.414 0-2.66 0.036-5.4274 0.036-8.395-0.07-0.4227-0.483-0.6678-0.553-1.0455 0.245 0 0.695-0.1416 0.834 0.1664m-11.61-0.1304c-0.07 0.3057-0.342 0.4114-0.483 0.6587-0.212 0.5621 0.036 1.1242-0.07 1.7108 0.036 2.417 0 4.69 0.036 7.062 0 0.184 0.13 0.387 0.306 0.421l3.75 0.071c0.202 0.034 0.447 0.106 0.589 0.246-0.07 0.211-0.351 0.141-0.526 0.175-1.399-0.034-2.898 0.07-4.261-0.106l-0.139-0.105c-0.036-0.623 0.034-1.291-0.247-1.853-0.421-0.175-0.94 0-1.397-0.139-0.211-0.106-0.139-0.387 0-0.52 0.457-0.245 1.327 0.133 1.572-0.492-0.034-1.3694 0.072-2.66 0-4.056-0.387-0.5624-1.185-0.036-1.536-0.5624 0.14-0.8002 1.255-0.1056 1.572-0.7642l0.106-1.6435c0.211-0.2091 0.492-0.1394 0.728-0.1034m5.56 10.134c0 0.28-0.036 0.634-0.344 0.634-0.245 0.033-0.632 0-0.632-0.354 0.07-0.244 0.281-0.456 0.526-0.596 0.248-0.069 0.378 0.176 0.45 0.316m-5.034-9.6525c0.106 2.4171-0.139 4.5865 0 7.0005-0.209 0.554 0.247 1.361-0.562 1.502-0.139-2.4165-0.034-5.0065-0.106-7.6235-0.069-0.4203 0.178-0.8071 0.529-1.0184l0.139 0.1394v-0.0001 0.0001zm10.389 0.4227c-0.034 2.6618 0.072 5.524-0.103 8.1138-0.142 0.036-0.317-0.139-0.353-0.281-0.034-1.088-0.14-2.1693-0.07-3.3183 0.07-1.5105-0.106-3.2845 0.07-4.8311 0.175-0.1057 0.456 0.1056 0.456 0.317m-6.401 8.2564c0.14 0.033 0.315 0.175 0.212 0.341l-0.281 0.248c-1.221-0.45-2.768-0.142-4.058-0.344 0.105-0.176 0.211-0.351 0.386-0.493 1.221 0.106 2.554-0.069 3.741 0.248m5.558-0.176c0.178 0.106 0.387 0.281 0.387 0.457l-0.176 0.06c-1.465 0.036-2.976-0.166-4.336 0.176-0.212 0.036-0.45 0-0.484-0.236 0.131-0.317 0.553-0.423 0.904-0.457 1.257-0.105 2.484 0 3.705 0m-0.103-8.7839c-0.036 2.7316 0.033 5.533-0.036 8.2559l-0.142 0.072c-1.502 0.139-2.968-0.247-4.328 0.245-0.247-0.142-0.036-0.562-0.105-0.807v-7.2734c0-0.2452 0.166-0.4566 0.377-0.5263 0.387-0.2721 0.913-0.1663 1.405-0.2383l2.757 0.072 0.072 0.2v0.0001zm-5.104 5.533c0.142-1.405 0.036-2.9765 0.07-4.3033 0-0.4204 0.036-0.9128-0.281-1.1938-1.019-0.4474-2.379-0.2024-3.53-0.272-0.07 0.036-0.211-0.045-0.175 0.1056 0 2.7565-0.036 5.3486-0.036 8.0714l0.069 0.315c0.837 0.142 1.68 0.072 2.557 0.072 0.447 0.07 0.906 0.209 1.326 0.281 0.036-0.949 0.106-1.68 0.036-2.5924l-0.036-0.4834v-0.0001z"/><path id="Book-3-Black" stroke-width=".19278" d="m49.712 2.7261c0.423 0.5283 0.142 1.2657 0.248 1.8885 0.455 0.387 1.43-0.0337 1.535 0.843 0.07 0.353-0.14 0.598-0.315 0.8004-0.315 0.315-0.87 0-1.15 0.351-0.106 1.054 0 2.2056 0 3.399 0.315 0.203 0.735 0.167 1.08 0.342 0.175 0.211 0.35 0.423 0.35 0.704-0.035 0.281-0.21 0.49-0.49 0.596-0.275 0.132-0.765 0-0.905 0.386-0.141 0.553 0.035 1.185-0.071 1.774-0.387 0.185-0.844 0.185-1.264 0.185l-4.119-0.043c-0.386 0.209-0.809 0.596-1.335 0.387-0.87-0.556-2.064-0.387-3.074-0.423l-3.075-0.036c-0.562-0.481-0.14-1.324-0.315-1.913-0.211-0.351-0.773-0.221-1.124-0.387-0.317-0.139-0.387-0.492-0.351-0.774 0.034-0.35 0.351-0.526 0.666-0.595 0.247-0.142 0.703 0.105 0.809-0.2724 0-1.0906-0.07-2.136-0.036-3.1546-0.07-0.6224-0.913-0.245-1.263-0.492-0.317-0.2004-0.344-0.587-0.281-0.94 0.281-0.5958 0.982-0.4564 1.51-0.6317l0.07-0.1754 0.061-1.8188 0.184-0.1394 4.787 0.1057c0.562 0 1.045 0.245 1.571 0.4204 1.019-0.7622 2.52-0.3867 3.741-0.5958 0.843 0.1754 1.713 0.0337 2.556 0.2091z" stroke="#000"/><path id="Book-3-White" fill="#fff" d="m42.889 12.38c0.106 0.069 0.106 0.245 0 0.272-0.423 0.492-0.94-0.106-1.502 0-0.913-0.106-1.922 0-2.837-0.106 0.247-0.764 1.326-0.308 1.924-0.447 0.808 0.105 1.711-0.142 2.415 0.281m5.137-0.176c0.176 0.104 0.351 0.281 0.387 0.448-1.432 0.175-2.828-0.167-4.197 0.211-0.212-0.036-0.282-0.274-0.212-0.414 0.281-0.317 0.738-0.245 1.16-0.317l2.862 0.072zm-4.118 0.94c0.035 0.315 0.035 0.771-0.387 0.771-0.281 0.036-0.526-0.105-0.596-0.35-0.072-0.351 0.139-0.668 0.384-0.808 0.317-0.036 0.459 0.21 0.599 0.387m-5.884-9.96c-0.07 0.272-0.414 0.4834-0.52 0.7644 0.036 2.8712 0 5.9806 0.106 8.9476l0.247 0.142c1.536 0.034 3.179-0.317 4.506 0.315 0.07 0.036 0.034 0.036 0 0.072-1.679-0.036-3.357 0.103-4.998-0.036l-0.142-0.176c-0.069-0.625 0.072-1.22-0.209-1.783-0.386-0.35-1.501 0.106-1.22-0.694 0.411-0.315 1.079 0.105 1.326-0.421 0-1.4676 0.07-2.767-0.036-4.127-0.317-0.423-0.913-0.142-1.326-0.2476-0.14-0.1394-0.245-0.3504-0.106-0.526 0.456-0.378 1.783 0.1056 1.538-0.9759 0.139-0.4564-0.212-1.3242 0.42-1.3602 0.142 0 0.317-0.0449 0.414 0.1057m11.407 0.0607c0.142 0.6677-0.139 1.3355 0.246 1.9247 0.413 0.1056 1.083-0.142 1.293 0.281-0.035 0.843-1.188 0.175-1.433 0.843 0.106 1.3266-0.106 2.4146 0.036 3.8466-0.142 0.103-0.175 0.245-0.072 0.384 0.378 0.317 0.869-0.209 1.259 0.142 0.245 0.07 0.105 0.281 0.105 0.414-0.32 0.456-1.083-0.063-1.292 0.526l-0.072 1.747-0.245 0.105-4.654-0.033c-0.072-0.072-0.036-0.106 0.034-0.142l0.562-0.211h3.532c0.175-0.034 0.42-0.176 0.42-0.421-0.036-2.758-0.069-5.629-0.069-8.6326l-0.423-0.8344c0.178-0.1754 0.668-0.2114 0.773 0.0607m-10.881 1.0904v7.5159c-0.07 0.212-0.315 0.317-0.456 0.457l-0.14-0.104c-0.027-0.809 0.034-1.713-0.027-2.4864v-0.598c-0.045-1.641-0.045-3.46 0.027-5.137 0.14-0.1395 0.281-0.4205 0.457-0.4902 0.139 0.3148 0.069 0.5261 0.139 0.8431m10.214-0.3867c-0.07 1.9583-0.034 3.8108 0.036 5.6635-0.036 0.8787-0.036 1.6437-0.036 2.4507-0.034 0.069-0.034 0.105-0.106 0.141-0.596-0.247-0.384-0.915-0.42-1.432 0.036-0.737-0.07-1.5802 0.069-2.3087l-0.105-0.2475 0.036-4.5838c0.139-0.317 0.42 0.1417 0.526 0.317m-0.913 0.1057c0-0.317 0.036-0.7037-0.139-0.9757l-1.257-0.045c-0.904 0.1506-1.925-0.1394-2.653 0.317-0.351 0.4227-0.176 0.9128-0.245 1.4052 0.078 0.2896 0.166 0.5886 0.254 0.8876l-0.167 0.378-0.535-0.1055-0.141-0.2995c0.06-0.22 0.123-0.4315 0.166-0.6583-0.034-0.5891 0.175-1.5019-0.596-1.7469-1.151-0.0966-2.205-0.1326-3.426-0.1326-0.07 0-0.175 0.036-0.209 0.1056 0.034 2.6867 0 4.9977 0.034 7.6484 0 0.317-0.106 0.738 0.247 0.88 1.009-0.142 1.922 0.033 2.907-0.036 0.375 0 0.623 0.35 1.009 0.247 0.106-1.091 0.106-2.3814 0.07-3.5658-0.036-0.097 0.018-0.335-0.142-0.378v-0.22l0.607 0.0694 0.061 0.2026c-0.016 0.018-0.034 0.045-0.07 0.0784l-0.069 3.6024c0.034 0.105 0.034 0.386 0.245 0.35 1.081-0.632 2.408-0.211 3.671-0.35l0.281-0.106c0.133-0.598 0.061-2.7228 0.061-2.7228 0.072-1.5806 0.036-3.152 0.036-4.8295"/><path id="Lone-White-Object" fill="#fff" d="m43.626 7.4086c-0.069 0.1754-0.386 0.1754-0.562 0.106l-0.175-0.072c0.106-0.3846 0-0.8346 0.317-1.1156 0.315 0.2116 0.281 0.695 0.42 1.0816"/><path id="Veritas" d="m25.667 8.744c-0.422-0.353-0.528-0.879-0.879-1.3014 0.142-0.2096 0.387-0.245 0.562-0.4206 0.281-0.272 0.563-0.659 0.423-1.0814-0.036-0.3506-0.211-0.7016-0.562-0.877-0.731-0.2719-1.677-0.1662-2.417-0.0966-0.139 0.0696-0.175 0.2026-0.07 0.308 0.282 0.1036 0.387 0.315 0.423 0.562-0.036 0.9466-0.036 1.8866-0.141 2.835l-0.387 0.414c0.387 0.3506 0.915 0.0786 1.477 0.175 0.139-0.245-0.247-0.4224-0.317-0.6944 0.07-0.281 0-0.6656 0.175-0.913 0.526 0.4564 0.704 1.185 1.327 1.6074l0.825 0.061-0.027-0.4474c-0.104 0.0694-0.306-0.0966-0.412-0.1306m-1.09-1.722c-0.236 0-0.623 0.1756-0.692-0.1324 0.033-0.4566-0.176-1.0526 0-1.475 0.314-0.245 0.807-0.1396 1.045 0.1754 0.139 0.247 0.139 0.562 0.139 0.843-0.139 0.247-0.211 0.528-0.492 0.589m19.225 0.9826c0.141 0.211 0.238 0.4224 0.211 0.6944l-0.281 0.387 0.176 0.139c0.413-0.0334 0.975 0.106 1.362-0.0694-0.106-0.2116-0.353-0.281-0.492-0.4206-0.493-1.2834-0.835-2.644-1.221-3.9703l-0.423 0.2023c-0.245 1.185-0.737 2.266-1.018 3.496-0.061 0.236-0.308 0.272-0.484 0.4116-0.245 0.0694-0.35-0.2116-0.456-0.342-0.034-1.054 0.106-1.9246 0.036-3.0486-0.036-0.1754 0.175-0.3864 0.351-0.209 0.281 0.1396 0.245 0.49 0.35 0.7376 0.072 0.1054 0.248 0.1054 0.272-0.072l0.178-1.0792c-0.142-0.3508-0.45 0.036-0.731 0-0.526-0.036-1.263 0.1056-1.756-0.2114-0.411 0.1417-0.308 0.7286-0.377 1.115-0.034 0.072 0 0.142 0.036 0.1756 0.341-0.209 0.517-0.771 1.009-0.632l0.036 1.0544-0.106 2.2756c-0.141 0.1754-0.483 0.236-0.456 0.481 0.596 0.1774 1.333 0 1.931 0.072 0.342 0.0334 0.729 0.1054 1.01 0 0.069-0.072 0.036-0.1756-0.034-0.2476-0.211-0.1054-0.459-0.281-0.387-0.553 0.106-0.1754 0.14-0.526 0.457-0.4204 0.078 0 0.105 0.043 0.13 0.097l0.501 0.0604v-0.018c0.07-0.0694 0.07-0.1054 0.176-0.1054m-0.738-0.49l-0.175-0.072c0.106-0.3846 0-0.8346 0.317-1.1156 0.315 0.2116 0.281 0.695 0.42 1.0816-0.069 0.1754-0.386 0.1754-0.562 0.106m3.926-2.381c0 0.254 0.184 0.7104-0.034 0.8944-0.247-0.218-0.281-0.429-0.677-0.535-0.211 0-0.422 0.036-0.465 0.281-0.072 0.7556 0.683 0.7556 1.106 1.248 0.396 0.3956 0.571 1.0366 0.396 1.5356-0.167 0.4044-0.36 0.643-0.747 0.643-0.359 0.0694-0.616-0.1756-0.897-0.036-0.069 0-0.209 0.0694-0.29-0.036l0.045-1.387c0.036-0.07 0.106-0.106 0.176-0.106 0.211 0.4564 0.069 0.994 0.71 1.0274 0.211-0.0334 0.387-0.0604 0.423-0.3414 0.078-1.248-1.563-0.94-1.529-2.2216 0.036-0.29 0.07-0.537 0.22-0.7824 0.281-0.4652 0.922-0.184 1.352-0.4652 0.177-0.0697 0.177 0.1752 0.211 0.2812m-17.548-0.07c-0.35 0.1754-0.737 0.4564-0.632 0.949-0.105 0.843-0.069 1.711-0.033 2.626l0.562 0.481-0.036 0.072c-0.598 0-1.151 0.1054-1.747 0-0.247-0.272 0.315-0.4136 0.42-0.625 0.106-0.9826 0.212-1.992 0.106-3.0826-0.106-0.3144-0.632-0.1754-0.492-0.517 0.528-0.0696 1.22-0.0696 1.749 0l0.103 0.0966zm-16.974 0.668c-0.353 0.4204-0.423-0.387-0.773-0.423-0.212-0.0266-0.527-0.0966-0.695 0.07-0.07 0.4584-0.14 0.879 0 1.3014 0.141 0.1036 0.414 0.07 0.589 0.07 0.211-0.142 0.317-0.5284 0.598-0.4924 0.175 0.1754-0.072 0.4564 0.034 0.632-0.07 0.272 0.175 0.589-0.14 0.6944-0.211-0.1054-0.317-0.4924-0.598-0.4924l-0.483 0.036c-0.176 0.632-0.106 1.194 0 1.792 0.272 0.272 0.625 0.0244 0.94 0.0244 0.456-0.0964 0.353-0.7284 0.737-0.6584 0.106 0.247 0.142 0.634 0.072 0.906l-0.211 0.1394-2.485-0.034c-0.1055-0.036-0.353-0.036-0.247-0.211 0.809-0.4834 0.351-1.4324 0.456-2.1964-0.105-0.5626 0.317-1.4056-0.4205-1.747-0.0355-0.2115 0.2115-0.1486 0.2815-0.2115 0.632 0 1.466 0.2385 1.958-0.2811 0.387 0.2114 0.351 0.6946 0.387 1.0816m-3.8135-0.562c-0.7015 0.562-0.7375 1.5444-1.052 2.345-0.281 0.456-0.1415 1.124-0.589 1.5104-0.1755 0.061-0.317-0.1054-0.351-0.247-0.247-1.0884-0.562-2.17-0.9485-3.188-0.036-0.315-0.7644-0.387-0.344-0.623 0.5195-0.0696 0.906 0.0696 1.3985 0.027 0.1035 0.3146-0.387 0.49-0.2475 0.877 0.317 0.456 0.2115 1.151 0.598 1.6076l0.1755-0.1756c0.027-0.8004 0.9395-1.538 0.1665-2.2394 0.175-0.3079 0.7035-0.0966 1.0545-0.2022 0.0695 0.0607 0.317 0.1326 0.139 0.3082"/></svg>
