<?xml version="1.0" encoding="iso-8859-1"?>
<!-- Generator: Adobe Illustrator 13.0.0, SVG Export Plug-In . SVG Version: 6.00 Build 14948)  -->
<!DOCTYPE svg PUBLIC "-//W3C//DTD SVG 1.1//EN" "http://www.w3.org/Graphics/SVG/1.1/DTD/svg11.dtd">
<svg version="1.1" id="Layer_1" xmlns="http://www.w3.org/2000/svg" xmlns:xlink="http://www.w3.org/1999/xlink" x="0px" y="0px"
	 width="300px" height="130px" viewBox="0 0 300 130" style="enable-background:new 0 0 300 130;" xml:space="preserve">
<polyline points="132.791,104.183 141.715,104.183 141.715,106.889 135.721,106.889 135.721,109.588 141.263,109.588 
	141.263,112.295 135.721,112.295 135.721,117.474 132.791,117.474 "/>
<path d="M153.959,103.844c4.146,0,7.174,2.726,7.174,6.984c0,4.264-3.027,6.983-7.174,6.983c-4.151,0-7.178-2.72-7.178-6.983
	C146.781,106.569,149.808,103.844,153.959,103.844 M153.959,115.11c2.493,0,4.128-1.803,4.128-4.282s-1.635-4.282-4.128-4.282
	c-2.502,0-4.136,1.803-4.136,4.282S151.457,115.11,153.959,115.11z"/>
<path d="M178.016,112.348c0,3.143-1.915,5.464-5.593,5.464c-3.704,0-5.621-2.326-5.621-5.464v-8.171h2.931v8.058
	c0,1.628,1.126,2.87,2.684,2.87c1.537,0,2.668-1.242,2.668-2.87v-8.058h2.93"/>
<polyline points="184.398,104.183 188.384,104.183 194.037,113.421 194.074,113.421 194.074,104.183 197.008,104.183 
	197.008,117.474 193.176,117.474 187.369,108.016 187.328,108.016 187.328,117.474 184.398,117.474 "/>
<path d="M203.387,104.183h4.395c4.287,0,7.872,1.821,7.872,6.683c0,4.303-3.514,6.608-7.476,6.608h-4.785 M206.316,114.774h1.522
	c2.721,0,4.771-1.031,4.771-4.058c0-2.606-2.083-3.828-4.565-3.828h-1.729V114.774z"/>
<path d="M225.7,104.183h2.422l5.781,13.291h-3.305l-1.147-2.815h-5.162l-1.105,2.815h-3.235 M226.821,108.052l-1.609,4.127h3.248
	L226.821,108.052z"/>
<polyline points="239.766,106.772 235.973,106.772 235.973,104.183 246.491,104.183 246.491,106.772 242.695,106.772 
	242.695,117.474 239.766,117.474 "/>
<rect x="251.611" y="104.183" width="2.929" height="13.291"/>
<path d="M267.353,103.844c4.15,0,7.174,2.726,7.174,6.984c0,4.264-3.023,6.983-7.174,6.983c-4.146,0-7.172-2.72-7.172-6.983
	C260.181,106.569,263.207,103.844,267.353,103.844 M267.353,115.11c2.5,0,4.134-1.803,4.134-4.282s-1.634-4.282-4.134-4.282
	c-2.498,0-4.129,1.803-4.129,4.282S264.854,115.11,267.353,115.11z"/>
<polyline points="280.194,104.183 284.186,104.183 289.832,113.421 289.869,113.421 289.869,104.183 292.803,104.183 
	292.803,117.474 288.976,117.474 283.17,108.016 283.125,108.016 283.125,117.474 280.194,117.474 "/>
<path style="fill:#FFFFFF;" d="M116.148,51.79l0.056-0.038c-0.761-19.024-14.093-32.3-32.431-32.3
	c-4.815,0-9.474,1.048-13.714,3.037c-0.642-0.63-1.23-1-1.23-1s0.541-5.065-3.337-8.943c-4.437-4.433-10.445-6.304-10.445-6.304
	s1.594,3.216,1.305,8.668c-0.155,2.99-1.421,5.963-2.876,8.896c-4.889-2.812-10.457-4.355-16.096-4.355
	c-18.222,0-31.553,13.189-32.426,32.063c-0.116,1.056-2.202,25.278,23.912,49.564c17.556,16.325,29.66,22.278,30.19,22.535
	c0,0-0.038,0-0.062,0c0.141,0.013,0.504,0.195,1.57,0.742c0.312-0.166,1.524-0.742,1.524-0.742
	c0.508-0.257,12.652-6.236,30.191-22.535c13.577-12.622,19.341-25.275,21.792-33.657c1.383-4.661,2.208-9.761,2.208-13.634"/>
<path style="fill:#EC2024;" d="M112.748,51.896c-0.711-17.477-12.996-28.969-28.983-28.969c-4.29,0-8.356,0.939-12.015,2.607
	c0.322,1.925-0.369,3.775-0.369,3.775s2,2.551,1.944,6.142c-0.054,3.282-2.786,6.46-3.841,7.714
	c-0.409,0.488-0.535,1.031-0.65,1.329c4.312-0.604,7.732-2.856,7.732-2.856c-1.513,4.17-5.083,21.44-4.061,22.641
	c1.014,1.202,3.251-1.2,3.251-1.2l8.053-9.02l3.318,5.382l11.386-2.263l-3.392,12.695l4.792,2.861c0,0-16.642,14.23-18.647,15.995
	c-1.99,1.763-0.729,4.022-0.729,4.022l2.007,3.521l-15.437-1.705l-1.152,14.945H55.3l-1.156-14.945l-15.433,1.705l2.004-3.521
	c0,0,1.261-2.26-0.73-4.022C37.982,86.965,21.34,72.734,21.34,72.734l4.801-2.861l-3.394-12.695l11.383,2.263l3.316-5.382
	l8.049,9.02c0,0,2.243,2.402,3.253,1.2c1.023-1.2-2.539-18.471-4.061-22.641c0,0,2.992,1.969,6.899,2.72
	c-0.772-1.202-2.914-4.039-2.857-7.888c0.045-3.138,1.55-6.354,3.206-9.623c-4.277-2.488-9.251-3.92-14.567-3.92
	c-15.987,0-28.264,11.492-28.968,28.969c0,0-2.308,23.254,22.82,46.638c17.261,16.029,29.058,21.813,29.333,21.951c0,0,0,0,0.013,0
	h0.017c0.281-0.138,12.097-5.922,29.319-21.951C115.051,75.149,112.748,51.896,112.748,51.896"/>
<path d="M64.681,22.837c0,0,1.05,0.257,1.05,1.795c0,2.757-2.065,4.916-2.065,8.166c0,1.613,0.565,2.375,0.565,2.375
	s4.195-4.563,4.195-8.12C68.426,23.502,64.681,22.837,64.681,22.837"/>
<path d="M68.549,31.097c0,0,1.306,1.799,1.306,4.409c0,2.866-1.934,4.694-2.679,5.53c-2.198,2.452-2.041,3.551-2.041,3.551
	s-1.453-1.607-1.436-4.015c0.016-3.433,2.377-5.152,3.8-7.525C68.426,31.5,68.549,31.097,68.549,31.097"/>
<path d="M59.8,11.99c0,0,1.427,2.689,1.76,5.142c0.511,3.718-1.417,6.097-1.417,6.097s0.202-1.896-0.133-3.149
	c-0.541-2.017-1.208-2.405-1.208-2.405s0.367,3.267-2.673,8.854c-2.544,4.688-3.76,7.928-3.71,10.735
	c0.06,3.396,2.071,6.24,4.194,6.24c1.008,0,1.184-0.782,1.184-0.782s0.635,0.847,0.635,1.827c0,3.018-3.708,3.537-3.708,3.537
	l-3.714,7.029l4.104,1.609l2.98,49.634h4.961l2.975-49.634l4.102-1.609l-3.708-7.029c0,0-2.54-1.586-5.116-4.75
	c-3.274-4.027-3.197-8.434-3.164-9.177c0.034-0.739,0.167-1.859,0.167-1.859s0.153,3.293,1.768,5.984
	c1.82,3.029,3.031,3.972,3.031,3.972s-0.863-2.735-1.147-6.174c-0.576-7.125,2.932-8.564,3.069-15.437
	C65.161,13.836,59.8,11.99,59.8,11.99"/>
<path d="M135.057,87.149c1.243,1.896,3.392,2.769,5.478,2.769c2.297,0,5.141-1.46,5.141-4.303
	c-0.004-5.941-12.73-2.262-12.73-12.323c0-3.031,2.554-7.221,8.753-7.221c2.805,0,5.507,0.587,7.438,2.952l-2.846,2.593
	c-0.869-1.35-2.587-2.263-4.592-2.263c-3.867,0-5.033,2.336-5.033,3.938c0,6.529,12.728,2.623,12.728,11.927
	c0,4.995-4.011,7.982-8.974,7.982c-3.313,0-6.492-1.128-8.238-3.573"/>
<polyline points="164.707,70.009 156.391,70.009 156.391,66.729 176.525,66.729 176.525,70.009 168.21,70.009 168.21,92.546 
	164.707,92.546 "/>
<path d="M184.979,66.726h9.077c6.604,0,8.285,3.978,8.285,7.221c0.003,3.285-2.446,6.383-6.346,6.821l7.325,11.774h-4.371
	l-6.567-11.372h-3.903v11.372h-3.5 M188.479,78.104h4.6c2.766,0,5.543-0.653,5.543-4.157c0-3.502-2.771-4.156-5.543-4.156h-4.6
	V78.104z"/>
<path d="M210.396,79.64c0-7.66,5.583-13.565,13.457-13.565c7.872,0,13.458,5.905,13.458,13.565c0,7.656-5.586,13.562-13.458,13.562
	C215.979,93.201,210.396,87.294,210.396,79.64 M233.591,79.64c0-5.653-3.833-10.286-9.738-10.286c-5.907,0-9.735,4.633-9.735,10.286
	c0,5.65,3.828,10.282,9.735,10.282C229.758,89.922,233.591,85.29,233.591,79.64z"/>
<polyline points="247.083,66.726 250.58,66.726 250.58,77.887 250.873,77.887 262.285,66.726 267.175,66.726 254.701,78.652 
	268.014,92.542 262.906,92.542 250.873,79.64 250.58,79.64 250.58,92.546 247.083,92.546 "/>
<polyline points="275.454,66.726 292.118,66.726 292.118,70.007 278.954,70.007 278.954,77.701 291.206,77.701 291.206,80.982 
	278.954,80.982 278.954,89.259 292.776,89.259 292.776,92.542 275.454,92.542 "/>
<polyline points="132.769,29.868 136.269,29.868 136.269,40.59 149.652,40.59 149.652,29.868 153.157,29.868 153.157,55.686 
	149.652,55.686 149.652,43.87 136.269,43.87 136.269,55.686 132.769,55.686 "/>
<polyline points="162.174,29.868 178.839,29.868 178.839,33.148 165.672,33.148 165.672,40.843 177.923,40.843 177.923,44.128 
	165.672,44.128 165.672,52.404 179.496,52.404 179.496,55.686 162.174,55.686 "/>
<path d="M197.459,29.868h3.172l11.055,25.818h-4.09l-2.58-6.383h-12.293l-2.555,6.383h-4.086 M203.736,46.24l-4.814-11.853h-0.073
	l-4.884,11.853H203.736z"/>
<path d="M218.051,29.868h9.082c6.599,0,8.271,3.976,8.271,7.22c0,3.282-2.439,6.38-6.344,6.817l7.33,11.781h-4.375l-6.563-11.38
	h-3.901v11.375h-3.498 M221.548,41.243h4.597c2.771,0,5.543-0.657,5.543-4.159s-2.772-4.156-5.543-4.156h-4.597V41.243z"/>
<polyline points="249.346,33.148 241.035,33.148 241.035,29.868 261.161,29.868 261.161,33.148 252.846,33.148 252.846,55.686 
	249.346,55.686 "/>
<path d="M293.363,55.686h-4.7l-3.177-3.43c-2.189,2.626-4.446,4.087-7.909,4.087c-5.834,0-8.456-3.72-8.456-7.478
	c-0.011-3.609,2.728-5.906,5.868-7.403c-1.645-1.75-3.035-3.464-3.035-5.981c0-3.938,3.215-6.05,6.895-6.05
	c3.603,0,6.677,1.931,6.677,5.834c0,3.244-2.778,5.288-5.363,6.634l5.102,5.326l3.246-5.287h3.976l-4.993,7.73 M277.173,43.505
	c-2.078,1.205-4.333,2.591-4.333,5.25c0,2.516,2.366,4.521,4.84,4.521c2.515,0,4.383-1.676,5.729-3.28L277.173,43.505z
	 M278.888,32.493c-1.858,0-3.431,1.094-3.431,3.026c0,1.711,1.42,3.171,2.548,4.302c1.79-0.982,4.016-2.226,4.016-4.557
	C282.021,33.552,280.704,32.493,278.888,32.493z"/>
</svg>
