<?xml version="1.0" encoding="UTF-8" standalone="no"?>
<svg
   xmlns:svg="http://www.w3.org/2000/svg"
   xmlns="http://www.w3.org/2000/svg"
   version="1.1"
   width="409.38556"
   height="446.29782"
   id="svg3086">
  <defs
     id="defs3088" />
  <g
     transform="translate(-232.45007,-303.4991)"
     id="layer1">
    <path
       d="m 566.41282,597.67389 c 0,23.67037 -4.37003,53.00996 -46.64599,71.89345 -3.84895,-1.723 -7.37832,-3.52936 -10.62283,-5.41216 0.60444,-5.25236 0.91708,-10.75483 0.91708,-16.52132 l 0,-81.86321 -36.92634,0 0,-30.77079 46.63209,0 46.64599,0 0,62.67403 z m -46.64599,-76.61086 -60.55502,0 0,68.21124 c 0,31.29881 10.88684,53.09333 29.8815,68.27378 l -0.0222,-9.55986 c -13.8882,-16.06278 -15.93773,-34.50163 -15.93773,-50.3143 l 0,-17.86221 22.92698,0 0,77.89616 c 0,28.40167 -7.96191,64.57071 -58.67223,87.23369 -48.19529,-21.53052 -57.79683,-55.26792 -58.63054,-82.94009 22.73245,-15.27771 35.95368,-38.22553 35.95368,-72.72022 l 0,-9.46954 22.67686,0 14.48569,0 0,-14.04103 -14.48569,0 -22.67686,0 0,-0.0111 -13.91599,0 0,0.0111 -36.08568,0 0,81.86321 c 0,2.85545 0.0762,5.64143 0.229,8.36488 l 0,0.006 c 5.46773,-3.57106 9.9906,-7.36443 13.75618,-11.32454 l 0,-64.86947 22.10023,0 0,17.86221 c 0,23.67732 -4.37697,53.00996 -46.64599,71.89345 -42.26207,-18.88349 -46.63904,-48.21613 -46.63904,-71.89345 l 0,-62.67403 46.63904,0 46.64599,0 0,23.98996 13.91598,0 0,-37.92679 -60.56197,0 -60.55502,0 0,68.21819 c 0,45.51353 23.03814,70.95554 60.55502,85.14247 4.24497,-1.60489 8.2954,-3.34873 12.15825,-5.25931 6.47513,41.36583 32.34788,65.98802 71.08059,80.6335 38.60764,-14.59684 64.43176,-39.12177 71.01806,-80.25138 3.61273,1.75773 7.40611,3.37652 11.35927,4.87719 37.53078,-14.19388 60.56892,-39.62894 60.56892,-85.14941 l 0,-68.21125 -60.56892,0 z"
       id="path56"
       style="fill:#2857af;fill-opacity:1;fill-rule:nonzero;stroke:none" />
    <path
       d="m 567.14926,303.4991 c -6.70441,0 -12.67932,1.00045 -17.88999,2.95272 -5.22458,1.92447 -9.94198,4.8494 -14.06883,8.68446 -4.13381,3.84895 -7.06568,8.07308 -8.85816,12.853 -1.79247,4.81467 -2.60533,10.11567 -2.60533,15.80573 0,4.9953 0.93792,9.96976 2.77902,15.11096 1.84806,5.16205 4.44645,9.60154 7.98971,13.20038 3.54326,3.59884 7.92023,6.32229 13.02669,8.1634 5.10647,1.75773 10.60894,2.60534 16.50048,2.60534 12.95027,0 23.61479,-3.93233 32.13251,-11.98456 8.50383,-8.03139 12.67932,-18.01505 12.67932,-30.04824 0,-3.77948 -0.36128,-7.288 -1.21583,-10.59505 -0.82676,-3.32788 -2.03563,-6.2806 -3.47378,-8.68446 -1.88974,-3.27925 -4.40476,-6.2945 -7.64233,-9.03184 -3.25841,-2.74429 -7.44779,-4.96056 -12.50562,-6.60019 -5.08563,-1.67436 -10.63673,-2.43165 -16.84786,-2.43165 z m -152.67285,1.04214 c -5.06478,11.53991 -8.33709,18.91823 -9.90029,22.23222 l -14.24252,30.39562 c -4.23802,8.78173 -6.62103,13.79092 -7.29495,15.11096 -1.16719,2.34133 -1.98005,3.79338 -2.60534,4.34223 -0.62528,0.56276 -1.35477,0.99351 -2.08427,1.21583 -0.74339,0.18731 -2.57754,0.30569 -5.55805,0.34738 l 0,3.30009 c 4.36307,-0.25678 8.32319,-0.34738 11.98456,-0.34738 3.18893,0 7.86465,0.0906 14.24251,0.34738 l 0,-3.30009 c -3.51547,-0.0389 -5.90543,-0.22232 -7.29494,-0.52079 -0.86845,-0.18064 -1.50068,-0.5836 -1.91059,-1.04214 -0.30569,-0.33348 -0.34737,-0.74339 -0.34737,-1.21582 0,-1.1394 0.47243,-2.90409 1.5632,-5.38437 l 6.07912,-13.89514 32.65358,0 7.12126,16.50048 c 0.52079,1.25056 0.69476,2.33438 0.69476,3.12641 0,0.49355 -0.18731,0.87539 -0.52079,1.21582 -0.31236,0.33348 -0.81981,0.67391 -1.73689,0.86845 -0.89624,0.16674 -3.43905,0.25678 -7.64233,0.34738 l 0,3.30009 18.06368,-0.34738 c 2.33438,0 6.44735,0.0906 12.33194,0.34738 l 0,-3.30009 c -2.98746,-0.0389 -4.8772,-0.29847 -5.73175,-0.69476 -0.84065,-0.39629 -1.53541,-1.17414 -2.25796,-2.43165 -1.29225,-2.25796 -3.88369,-7.75349 -7.81601,-16.50048 l -24.14281,-54.01736 -3.64747,0 z m -149.72014,0.69475 0,3.64748 c 4.44645,0.0628 7.20463,0.22232 8.1634,0.52079 0.95182,0.31236 1.65352,0.75728 2.08427,1.38951 0.42408,0.63223 0.5836,2.70955 0.69476,6.07912 0.17341,4.65488 0.34738,9.40007 0.34738,14.24252 l 0,24.66388 c -0.13896,9.41395 -0.3057,14.53431 -0.34738,15.28465 -0.12506,2.73734 -0.41686,4.48813 -0.86845,5.21068 -0.37517,0.52079 -0.93792,0.90318 -1.91058,1.21582 -0.98656,0.32626 -3.7239,0.45187 -8.1634,0.52079 l 0,3.47379 14.24252,-0.34738 13.54776,0.34738 0,-3.47379 c -4.48813,-0.0695 -7.21157,-0.1873 -8.16339,-0.52079 -0.95876,-0.30569 -1.65352,-0.74339 -2.08427,-1.38951 -0.44465,-0.63223 -0.75729,-2.68871 -0.86845,-6.07913 -0.2779,-4.61318 -0.34738,-9.36532 -0.34738,-14.24251 l 0,-37.51688 26.92184,53.3226 3.99485,7.81601 c 0.41685,0.77813 0.72255,1.88974 1.21583,3.3001 l 2.25796,0 c 2.51502,-5.8707 4.31444,-10.18514 5.55805,-12.853 1.74384,-3.68222 4.25191,-8.55246 7.29495,-14.5899 l 19.4532,-38.90639 0,39.42746 c -0.13896,9.42785 -0.3057,14.53431 -0.34738,15.28465 -0.0767,2.75819 -0.3824,4.48813 -0.86845,5.21068 -0.34015,0.52801 -0.93792,0.91013 -1.91058,1.21582 -1.00045,0.33349 -3.69611,0.45187 -8.1634,0.52079 l 0,3.47379 c 8.60804,-0.3057 14.15915,-0.34738 16.67417,-0.34738 3.11251,0 8.39267,0.0389 15.97941,0.34738 l 0,-3.47379 c -4.46728,-0.0695 -7.04483,-0.19453 -7.9897,-0.52079 -0.95182,-0.31236 -1.65352,-0.75728 -2.08427,-1.38951 -0.42408,-0.63223 -0.75729,-2.70261 -0.86845,-6.07913 -0.19453,-4.61318 -0.34738,-9.36532 -0.34738,-14.24251 l 0,-24.66388 c 0.15285,-9.41395 0.29847,-14.56905 0.34738,-15.28465 0.0767,-2.72345 0.3685,-4.50203 0.86845,-5.21068 0.3685,-0.56275 0.95876,-0.90318 1.91058,-1.21582 0.95876,-0.29847 3.67526,-0.45854 8.16339,-0.52079 l 0,-3.64748 c -5.64142,0.27791 -9.65017,0.34738 -12.15824,0.34738 -2.75124,0 -6.10692,-0.0695 -10.07398,-0.34738 -1.77163,4.45339 -5.33573,11.95677 -10.59504,22.40592 l -19.27951,38.38532 -21.36378,-41.85911 c -2.75818,-5.37047 -5.88459,-11.74139 -9.20553,-18.93213 -3.34178,0.27791 -6.76693,0.34738 -10.42135,0.34738 -3.59885,0 -7.35053,-0.0695 -11.28981,-0.34738 z m 178.55255,0 0,3.47379 c 4.48813,0.0767 6.0027,0.22899 7.12126,0.52079 1.13246,0.29846 2.05648,0.81981 2.77903,1.38951 0.87539,0.7156 2.22322,2.45249 3.99485,5.21068 l 14.41621,20.32164 c 3.3001,5.25236 5.21068,8.30929 5.73175,9.20553 0.74339,1.27835 1.45899,2.73734 2.25796,4.34223 l 0,6.25282 c -0.17341,9.38616 -0.3057,14.36757 -0.34738,15.11096 -0.11116,2.7304 -0.38907,4.49508 -0.86845,5.21068 -0.33348,0.52079 -0.94487,0.89623 -1.91058,1.21582 -0.96571,0.31237 -3.61274,0.61139 -7.98971,0.69476 l 0,3.3001 c 7.01705,-0.25679 12.56816,-0.34738 16.84786,-0.34738 4.44645,0 9.85166,0.0906 15.97941,0.34738 l 0,-3.3001 c -4.39781,-0.0834 -7.06568,-0.38239 -7.9897,-0.69476 -0.93098,-0.31959 -1.66047,-0.76423 -2.08427,-1.38951 -0.43075,-0.63918 -0.75729,-2.68871 -0.86845,-6.07913 -0.22899,-4.58539 -0.34738,-9.20553 -0.34738,-14.06882 l 0,-4.16855 c 0,-1.01434 0.2779,-2.00784 0.69476,-3.1264 0.39629,-1.13246 2.21627,-4.22413 5.38437,-9.20553 l 16.50047,-23.62174 c 2.03564,-2.75819 3.56411,-4.49508 4.51592,-5.21068 0.76424,-0.5697 1.61879,-1.09077 2.77903,-1.38951 1.1394,-0.2918 2.83461,-0.44465 7.29495,-0.52079 l 0,-3.47379 c -7.39221,0.22899 -9.45564,0.34738 -13.20038,0.34738 -3.87675,0 -7.96886,-0.11839 -14.93728,-0.34738 l 0,3.47379 c 4.34918,0.0767 7.60064,0.22899 8.33709,0.52079 0.73644,0.29846 1.05603,0.75033 1.04213,1.38951 -0.0278,0.64613 -1.07687,2.68176 -3.30009,6.07913 l -18.06369,27.26921 -16.84785,-27.26921 c -1.93143,-3.39737 -2.80682,-5.433 -2.77903,-6.07913 0.0389,-0.63918 0.45187,-1.09077 1.21582,-1.38951 0.77118,-0.2918 4.51592,-0.44465 8.85816,-0.52079 l 0,-3.47379 c -6.97536,0.22899 -16.94513,0.34738 -20.84271,0.34738 -3.7239,0 -5.97491,-0.11839 -13.37408,-0.34738 z m 121.40879,2.77903 c 4.11991,0 7.89939,0.70865 11.46349,1.91058 3.55716,1.20888 6.44734,2.54976 8.68446,4.34223 2.22322,1.77858 4.28665,3.8837 5.90544,6.25282 1.61183,2.36217 2.84155,5.04393 3.82116,7.9897 1.57015,4.82162 2.43165,10.11566 2.43165,15.80572 0,6.70441 -1.10466,12.60984 -3.3001,17.71631 -2.19543,5.09951 -5.62058,8.9971 -10.07397,11.81087 -4.46729,2.79987 -9.5946,4.16854 -15.63204,4.16854 -4.34917,0 -8.40655,-0.54858 -11.98455,-1.91058 -3.57105,-1.37562 -6.80167,-3.68222 -9.7266,-6.6002 -2.89714,-2.90408 -5.16205,-6.46124 -6.94757,-10.76873 -1.09077,-2.54976 -2.06343,-5.50942 -2.77903,-9.03184 -0.7017,-3.51547 -1.04213,-7.0101 -1.04213,-10.42135 0,-6.07913 1.02129,-11.51908 3.30009,-16.32679 2.26491,-4.80772 5.75259,-8.57331 10.24767,-11.11612 4.49507,-2.53586 9.67101,-3.82116 15.63203,-3.82116 z m -151.28334,11.2898 14.06883,32.3062 -28.48504,0 14.41621,-32.3062 z m -134.0881,86.67094 c -14.46484,0 -26.00475,3.77948 -34.39047,11.2898 -8.35793,7.51032 -12.50563,16.90344 -12.50563,28.31135 0,4.52286 0.66002,8.7192 1.91059,12.50562 1.23666,3.78643 3.02219,7.35053 5.38436,10.59505 2.38997,3.23756 5.46079,6.09996 9.20553,8.68446 3.74474,2.59839 8.04529,4.50897 13.0267,5.90543 5.02309,1.39647 10.49083,2.25796 16.32679,2.25796 4.95361,0 9.51817,-0.61833 13.72145,-1.5632 4.21022,-0.93792 8.46214,-2.39691 12.853,-4.51592 l 2.25796,-5.03699 -0.86844,-1.21582 c -2.96662,1.96616 -6.04439,3.4321 -9.03185,4.34223 -4.41865,1.34088 -9.07352,2.08427 -14.24251,2.08427 -11.4357,0 -20.68292,-3.30704 -27.6166,-9.90029 -6.96146,-6.58629 -10.42135,-15.37497 -10.42135,-26.22707 0.0278,-6.21113 0.97266,-11.36623 2.77903,-15.45835 1.81331,-4.09906 4.11296,-7.42 6.94757,-10.07397 2.8485,-2.66787 6.15555,-4.51592 9.90029,-5.73175 3.71695,-1.21582 8.17729,-2.01479 13.54776,-2.08427 7.17684,0 12.62373,0.90318 16.32679,2.60534 3.73084,1.71605 5.88459,4.2936 6.25281,7.81601 l 0,6.42651 3.47378,0 c 0.2151,-4.02959 0.61834,-7.55201 1.21583,-10.59505 0.41018,-1.89668 0.92403,-3.93927 1.73689,-5.90543 -0.93792,-0.19453 -3.45294,-0.68086 -7.64233,-1.73689 -4.19633,-1.05604 -7.68401,-1.8828 -10.59504,-2.25796 -2.93187,-0.36128 -6.12776,-0.52079 -9.55291,-0.52079 z m 334.5255,0 c -14.47874,0 -25.85886,3.77948 -34.21679,11.2898 -8.37182,7.51032 -12.50562,16.90344 -12.50562,28.31135 0,4.52286 0.48633,8.7192 1.73689,12.50562 1.25056,3.78643 3.0083,7.35053 5.38437,10.59505 2.37607,3.23756 5.45384,6.09996 9.20553,8.68446 3.75169,2.59839 8.22592,4.50897 13.20038,5.90543 5.02309,1.39647 10.32409,2.25796 16.1531,2.25796 4.95362,0 9.68491,-0.61833 13.89514,-1.5632 4.21718,-0.93792 8.46214,-2.39691 12.85301,-4.51592 l 2.25796,-5.03699 -1.04214,-1.21582 c -2.96661,1.96616 -5.8707,3.4321 -8.85815,4.34223 -4.41866,1.34088 -9.26111,2.08427 -14.41621,2.08427 -11.4357,0 -20.66902,-3.30704 -27.61659,-9.90029 -6.96146,-6.58629 -10.42135,-15.37497 -10.42135,-26.22707 0.0389,-6.21113 0.97266,-11.36623 2.77902,-15.45835 1.82027,-4.09906 4.26581,-7.42 7.12126,-10.07397 2.84851,-2.66787 5.98186,-4.51592 9.7266,-5.73175 3.71695,-1.21582 8.34403,-2.01479 13.72145,-2.08427 7.16295,0 12.62374,0.90318 16.32679,2.60534 3.73085,1.71605 5.69701,4.2936 6.07912,7.81601 l 0,6.42651 3.47379,0 c 0.23622,-4.02959 0.61833,-7.55201 1.21582,-10.59505 0.41019,-1.89668 1.08383,-3.93927 1.91059,-5.90543 -0.95182,-0.19453 -3.61274,-0.68086 -7.81602,-1.73689 -4.19633,-1.05604 -7.69096,-1.8828 -10.59504,-2.25796 -2.93188,-0.36128 -6.12776,-0.52079 -9.55291,-0.52079 z m -297.70338,1.38951 0,3.3001 c 4.38392,0.0695 7.03789,0.22232 7.98971,0.52079 0.93097,0.31236 1.48678,0.93097 1.91058,1.5632 0.41685,0.65307 0.75728,2.67481 0.86845,6.07912 0.21509,4.68961 0.34737,9.36533 0.34737,14.24252 l 0,29.1798 c 0,0.95181 -0.13228,3.93927 -0.34737,8.85815 -0.11117,3.33483 -0.35405,5.45384 -0.69476,6.4265 -0.13228,0.52802 -0.32626,0.91708 -0.69476,1.21583 -0.62528,0.59749 -2.22322,1.38256 -4.51592,2.43164 l 0,2.77903 c 3.71695,-0.21565 7.51727,-0.34738 11.11611,-0.34738 l 30.04824,0.34738 c 4.05738,0 7.07263,-0.0973 9.03184,-0.17341 0.91014,-0.0761 2.11207,-0.22899 3.64748,-0.52079 0.78507,-7.21852 1.60489,-13.40186 2.43165,-18.75844 l -3.64748,0 -2.25796,8.85815 c -0.36127,1.38952 -0.88929,2.7304 -1.38951,3.82117 -4.24497,1.30614 -12.13046,1.91058 -22.75329,1.91058 -4.22412,0 -4.74519,-0.12506 -9.03184,-0.34738 -0.22233,-2.38302 -0.34738,-5.40521 -0.34738,-9.20553 l 0,-36.47474 c 0.16674,-9.50428 0.2918,-14.56211 0.34738,-15.28466 0.11838,-2.76513 0.41685,-4.49507 0.86844,-5.21067 0.3685,-0.5697 1.11856,-1.07688 2.08427,-1.38952 0.96572,-0.29846 3.52242,-0.45187 7.98971,-0.52079 l 0,-3.30009 c -8.37182,0.21509 -13.75619,0.17341 -16.1531,0.17341 -2.18848,0 -7.69791,0.0389 -16.84786,-0.17341 z m 68.25988,0 0,3.3001 c 4.36307,0.0695 7.05178,0.22232 7.9897,0.52079 0.93793,0.29846 1.64658,0.93097 2.08427,1.5632 0.41686,0.65307 0.5697,2.67481 0.69476,6.07912 0.20843,4.68267 0.34738,9.35838 0.34738,14.24252 l 0,25.01125 c -0.16674,9.49733 -0.30569,14.70106 -0.34738,15.45835 -0.12506,2.75124 -0.25678,4.50202 -0.69476,5.21068 -0.38239,0.53524 -1.11855,0.89623 -2.08427,1.21582 -0.95181,0.31236 -3.64052,0.44464 -7.9897,0.52079 l 0,3.47378 17.36892,-0.34737 c 2.50808,0 7.67012,0.13172 15.63204,0.34737 l 0,-3.47378 c -4.46034,-0.0761 -7.21853,-0.20843 -8.1634,-0.52079 -0.95182,-0.31959 -1.65352,-0.75729 -2.08427,-1.38951 -0.43798,-0.65308 -0.5836,-2.66787 -0.69476,-6.07913 -0.10449,-4.64792 -0.17341,-9.49038 -0.17341,-14.41621 l 0.34738,-40.2959 c 0.10449,-2.77208 0.25011,-4.50203 0.69476,-5.21068 0.3685,-0.58359 1.13245,-1.09077 2.08427,-1.38951 0.93792,-0.29847 3.57105,-0.45187 7.9897,-0.52079 l 0,-3.3001 c -7.25326,0.22232 -12.76963,0.17341 -16.50048,0.17341 -3.87674,0 -9.39311,0.05 -16.50047,-0.17341 z m 44.98551,0 0,3.3001 c 3.03609,0.0278 5.0231,0.1873 5.90544,0.34738 0.89623,0.17341 1.58404,0.47243 2.25796,1.04213 1.07687,0.90319 1.78552,1.79247 2.08427,2.43165 0.15285,0.34738 0.17341,1.04214 0.17341,2.25796 l 0,43.94338 c 0,3.446 0.05,7.5659 -0.17341,12.33194 -0.16007,3.04998 -0.48633,4.84245 -0.86845,5.55805 -0.22899,0.48633 -0.67391,0.84761 -1.21582,1.04214 -1.23667,0.5697 -3.69611,0.83371 -7.64233,0.86845 l 0,3.47378 c 5.08562,-0.21565 9.7127,-0.34738 14.06883,-0.34738 3.94622,0 7.64233,0.13173 10.94242,0.34738 l 0,-3.47378 c -3.94622,-0.0333 -6.56545,-0.33349 -7.81601,-0.86845 -0.54191,-0.17341 -0.94487,-0.50023 -1.21583,-1.04214 -0.31959,-0.68086 -0.56275,-2.54281 -0.69475,-5.55805 -0.25679,-4.85635 -0.34738,-9.10827 -0.34738,-12.67932 l 0,-41.85911 39.94852,46.37503 7.29495,8.85815 c 1.46594,1.75774 3.66832,4.37003 6.77388,7.81602 1.1672,1.26446 1.98006,1.88279 2.25796,2.08427 0.18731,0.15285 0.65308,0.82676 0.86845,0.86845 l 1.38951,1.38951 5.55806,0 c -0.22232,-14.35368 -0.34738,-24.09417 -0.34738,-29.35348 l 0,-26.05339 c 0,-3.43905 0.12506,-7.45474 0.34738,-12.15825 0.13228,-3.11945 0.48633,-5.05088 0.86845,-5.73174 0.21509,-0.51412 0.51412,-0.81981 1.04213,-1.04214 1.23667,-0.49355 3.87675,-0.84065 7.81602,-0.86844 l 0,-3.3001 c -3.51547,0.2151 -7.51727,0.17341 -11.81087,0.17341 -4.5854,0 -8.92068,0.0389 -13.37407,-0.17341 l 0,3.3001 c 3.93927,0.0278 6.39176,0.37517 7.64232,0.86844 0.53469,0.22233 0.94487,0.55581 1.21583,1.04214 0.32626,0.7156 0.54191,2.56365 0.69476,5.55805 0.21509,4.69656 0.34737,8.79563 0.34737,12.33194 l 0,39.25377 c -1.4173,-1.36172 -3.15419,-3.18893 -5.21067,-5.55805 -3.27231,-3.578 -7.48948,-8.51078 -12.85301,-14.76359 l -16.84786,-19.62689 -11.46349,-13.72145 c -1.47983,-1.89668 -3.80032,-4.69655 -6.94757,-8.68446 -2.82071,0.2151 -5.66227,0.17341 -8.51077,0.17341 -1.66742,0 -5.67616,0.0389 -12.15825,-0.17341 z m 99.00288,0 0,3.3001 c 4.39781,0.0695 7.02399,0.22232 7.9897,0.52079 0.93098,0.29846 1.66742,0.93097 2.08427,1.5632 0.42408,0.65307 0.57665,2.67481 0.69476,6.07912 0.22232,4.68267 0.34738,9.35838 0.34738,14.24252 l 0,25.01125 c -0.16674,9.49733 -0.27068,14.70106 -0.34738,15.45835 -0.11783,2.75124 -0.24344,4.50202 -0.69476,5.21068 -0.37517,0.53524 -1.13245,0.89623 -2.08427,1.21582 -0.97266,0.31236 -3.60579,0.44464 -7.9897,0.52079 l 0,3.47378 17.19523,-0.34737 c 2.52892,0 7.8577,0.13172 15.80572,0.34737 l 0,-3.47378 c -4.46034,-0.0761 -7.21157,-0.20843 -8.16339,-0.52079 -0.95182,-0.31959 -1.66047,-0.75729 -2.08427,-1.38951 -0.43075,-0.65308 -0.59749,-2.66787 -0.69476,-6.07913 -0.11783,-4.64792 -0.17341,-9.49038 -0.17341,-14.41621 l 0,-25.01125 c 0.16674,-9.49733 0.11783,-14.576 0.17341,-15.28465 0.10394,-2.77208 0.41685,-4.50203 0.86845,-5.21068 0.37517,-0.58359 1.13245,-1.09077 2.08427,-1.38951 0.93792,-0.29847 3.578,-0.45187 7.9897,-0.52079 l 0,-3.3001 c -7.23242,0.22232 -12.76963,0.17341 -16.50048,0.17341 -3.88369,0 -9.37921,0.05 -16.50047,-0.17341 z"
       id="path60"
       style="fill:#231f20;fill-opacity:1;fill-rule:nonzero;stroke:none" />
  </g>
</svg>
